<svg aria-hidden="true" style="position: absolute; width: 0; height: 0; overflow: hidden;" version="1.1" xmlns="http://www.w3.org/2000/svg" xmlns:xlink="http://www.w3.org/1999/xlink">
<defs>
<symbol id="icon-hand" viewBox="0 0 32 32">
<path fill="#fac036" style="fill: var(--color1, #fac036)" d="M9.777 19.89c-0.275 0.258-0.553-0.050-0.553-0.050s-4.62-4.895-4.92-5.115c-0.422-0.307-1.327-0.79-2.232 0.143-0.377 0.387-0.993 1.25 0.15 2.64 0.248 0.3 7.445 7.885 7.865 8.295 0 0 3.325 3.235 5.338 4.453 0.557 0.337 1.185 0.695 1.918 0.945 0.73 0.25 1.555 0.422 2.425 0.422 0.87 0.010 1.773-0.157 2.625-0.47 0.852-0.315 1.648-0.773 2.37-1.3 0.177-0.135 0.358-0.27 0.525-0.415l0.485-0.4c0.331-0.28 0.65-0.574 0.955-0.883 0.608-0.605 1.155-1.253 1.637-1.915 0.48-0.665 0.887-1.352 1.212-2.038s0.552-1.372 0.69-2.023c0.145-0.648 0.185-1.26 0.163-1.795-0.005-0.535-0.113-0.992-0.2-1.358-0.1-0.365-0.207-0.637-0.293-0.817-0.082-0.18-0.128-0.275-0.128-0.275-0.115-0.323-0.225-0.63-0.323-0.907-0.368-1.042-0.744-2.081-1.128-3.117l0.003 0.008c-1.212-3.293-2.515-6.685-2.515-6.685-0.198-0.598-0.925-0.805-1.46-0.42-1.545 1.11-2.017 2.73-1.473 4.457l1.398 3.83c0.198 0.428-0.348 0.923-0.712 0.625-1.148-0.935-3.575-3.513-3.575-3.513-1.085-1.040-7.207-7.317-7.617-7.7-0.825-0.768-1.865-1.163-2.658-0.58-0.81 0.595-1.035 1.515-0.252 2.52 0.213 0.272 6.4 6.81 6.4 6.81 0.36 0.377-0.065 0.912-0.463 0.545 0 0-7.697-8.030-8.045-8.405-0.787-0.855-2.053-1.043-2.803-0.338-0.732 0.688-0.715 1.815 0.085 2.7 0.255 0.28 5.677 6.005 7.848 8.35 0.145 0.157 0.258 0.367 0.043 0.565-0.002 0.003-0.22 0.238-0.5-0.063-0.59-0.63-6.482-6.77-6.81-7.102-0.753-0.765-1.763-1.127-2.575-0.383-0.74 0.678-0.86 1.86-0.010 2.695l7.137 7.545c0 0 0.232 0.275-0.027 0.517z"></path>
<path fill="#e48c15" style="fill: var(--color2, #e48c15)" d="M21.365 13.6l0.602 0.645c0 0-3.448 3.327-1.098 8.437 0 0 0.305 0.648-0.095 0.755 0 0-0.35 0.195-0.75-0.8 0-0.003-2.372-4.855 1.34-9.037z"></path>
<path fill="none" stroke="#444" style="stroke: var(--color3, #444)" stroke-linejoin="miter" stroke-linecap="round" stroke-miterlimit="10" stroke-width="1" d="M15.82 2.55c0 0 1.453 0.22 2.797 1.66 1.345 1.442 1.968 3.295 1.968 3.295M19.36 0.875c0 0 1.218 0.613 2.157 2.125s1.168 3.263 1.168 3.263M8.927 27.683c0 0-1.465 0.098-3.088-1.023s-2.63-2.795-2.63-2.795M7.882 30.14c0 0-1.36 0.058-2.92-0.805s-2.61-2.28-2.61-2.28"></path>
</symbol>
<symbol id="icon-arrow-down" viewBox="0 0 32 32">
<path d="M22.4 12.8l-6.448 9.6-6.352-9.6h12.8z"></path>
</symbol>
<symbol id="icon-arrow-left" viewBox="0 0 32 32">
<path d="M18.667 21.333l-8-5.373 8-5.293v10.667z"></path>
</symbol>
<symbol id="icon-arrow-right" viewBox="0 0 32 32">
<path d="M13.333 10.667l8 5.373-8 5.293v-10.667z"></path>
</symbol>
<symbol id="icon-close" viewBox="0 0 30 32">
<path d="M17.477 15.244l12.632-12.632c0.25-0.292 0.38-0.666 0.365-1.050s-0.174-0.747-0.445-1.019-0.635-0.43-1.019-0.445c-0.384-0.015-0.759 0.116-1.050 0.365l-12.632 12.632-12.632-12.648c-0.287-0.287-0.676-0.448-1.082-0.448s-0.795 0.161-1.082 0.448c-0.287 0.287-0.448 0.676-0.448 1.082s0.161 0.795 0.448 1.082l12.648 12.632-12.648 12.632c-0.159 0.137-0.289 0.305-0.381 0.494s-0.143 0.395-0.151 0.605c-0.008 0.21 0.027 0.419 0.104 0.615s0.193 0.373 0.341 0.522c0.148 0.149 0.326 0.265 0.522 0.341s0.405 0.112 0.615 0.104 0.416-0.060 0.605-0.151c0.189-0.091 0.357-0.221 0.494-0.381l12.648-12.632 12.632 12.632c0.291 0.25 0.666 0.38 1.050 0.365s0.747-0.174 1.019-0.445c0.271-0.271 0.43-0.635 0.445-1.019s-0.116-0.758-0.365-1.050l-12.632-12.632z"></path>
</symbol>
<symbol id="icon-github" viewBox="0 0 32 32">
<path d="M16 0c-8.84 0-16 7.16-16 16 0 7.080 4.58 13.060 10.94 15.18 0.8 0.14 1.1-0.34 1.1-0.76 0-0.38-0.020-1.64-0.020-2.98-4.020 0.74-5.060-0.98-5.38-1.88-0.18-0.46-0.96-1.88-1.64-2.26-0.56-0.3-1.36-1.040-0.020-1.060 1.26-0.020 2.16 1.16 2.46 1.64 1.44 2.42 3.74 1.74 4.66 1.32 0.14-1.040 0.56-1.74 1.020-2.14-3.56-0.4-7.28-1.78-7.28-7.9 0-1.74 0.62-3.18 1.64-4.3-0.16-0.4-0.72-2.040 0.16-4.24 0 0 1.34-0.42 4.4 1.64 1.28-0.36 2.64-0.54 4-0.54s2.72 0.18 4 0.54c3.060-2.080 4.4-1.64 4.4-1.64 0.88 2.2 0.32 3.84 0.16 4.24 1.020 1.12 1.64 2.54 1.64 4.3 0 6.14-3.74 7.5-7.3 7.9 0.58 0.5 1.080 1.46 1.080 2.96 0 2.14-0.020 3.86-0.020 4.4 0 0.42 0.3 0.92 1.1 0.76 3.176-1.072 5.936-3.114 7.892-5.837s3.007-5.991 3.008-9.343c0-8.84-7.16-16-16-16z"></path>
</symbol>
<symbol id="icon-instagram" viewBox="0 0 32 32">
<path d="M18.553 2.286c1.543 0.004 2.326 0.012 3.002 0.032l0.266 0.010c0.307 0.011 0.61 0.025 0.976 0.041 1.459 0.069 2.455 0.299 3.328 0.638 0.905 0.348 1.668 0.82 2.43 1.581 0.697 0.686 1.237 1.515 1.581 2.43 0.339 0.874 0.569 1.869 0.638 3.33 0.016 0.365 0.030 0.668 0.041 0.976l0.008 0.266c0.021 0.675 0.029 1.458 0.032 3.001l0.001 1.023v1.797c0.003 1-0.007 2.001-0.032 3.001l-0.008 0.266c-0.011 0.309-0.025 0.612-0.041 0.976-0.069 1.461-0.302 2.455-0.639 3.33-0.343 0.916-0.883 1.745-1.581 2.43-0.686 0.697-1.515 1.237-2.43 1.581-0.874 0.339-1.869 0.569-3.328 0.638-0.325 0.015-0.651 0.029-0.976 0.041l-0.266 0.008c-0.676 0.019-1.459 0.029-3.002 0.032l-2.818 0.001c-1.001 0.004-2.001-0.007-3.002-0.032l-0.266-0.008c-0.326-0.012-0.651-0.026-0.976-0.043-1.459-0.069-2.455-0.299-3.33-0.638-0.915-0.344-1.744-0.883-2.429-1.581-0.698-0.685-1.238-1.515-1.583-2.43-0.339-0.873-0.569-1.869-0.638-3.33-0.015-0.325-0.029-0.651-0.041-0.976l-0.007-0.266c-0.025-1-0.037-2-0.034-3.001v-2.82c-0.004-1 0.006-2.001 0.030-3.001l0.010-0.266c0.011-0.309 0.025-0.612 0.041-0.976 0.069-1.461 0.299-2.455 0.638-3.33 0.344-0.916 0.886-1.746 1.585-2.43 0.684-0.697 1.513-1.237 2.427-1.581 0.875-0.339 1.869-0.569 3.33-0.638 0.365-0.016 0.669-0.030 0.976-0.041l0.266-0.008c1-0.024 2-0.035 3-0.032l2.82-0.001zM17.143 9.143c-1.819 0-3.563 0.722-4.848 2.008s-2.008 3.030-2.008 4.849c0 1.819 0.722 3.563 2.008 4.849s3.030 2.008 4.848 2.008 3.563-0.722 4.848-2.008c1.286-1.286 2.008-3.030 2.008-4.849s-0.722-3.563-2.008-4.849c-1.286-1.286-3.030-2.008-4.848-2.008zM17.143 11.886c0.54-0 1.075 0.106 1.574 0.313s0.953 0.51 1.335 0.892c0.382 0.382 0.685 0.835 0.892 1.335s0.313 1.034 0.314 1.574c0 0.54-0.106 1.075-0.313 1.575s-0.51 0.953-0.892 1.335c-0.382 0.382-0.836 0.685-1.335 0.892s-1.034 0.313-1.574 0.313c-1.091 0-2.138-0.433-2.909-1.205s-1.205-1.818-1.205-2.909c0-1.091 0.433-2.138 1.205-2.909s1.818-1.205 2.909-1.205zM24.344 7.086c-0.455 0-0.891 0.181-1.212 0.502s-0.502 0.757-0.502 1.212 0.181 0.891 0.502 1.212c0.322 0.322 0.758 0.502 1.212 0.502s0.891-0.181 1.212-0.502c0.322-0.322 0.502-0.758 0.502-1.212s-0.181-0.891-0.502-1.212c-0.322-0.322-0.758-0.502-1.212-0.502z"></path>
</symbol>
<symbol id="icon-letter" viewBox="0 0 32 32">
<path d="M30.071 5.333c-0.121-0.012-0.243-0.012-0.364 0h-24.889c-0.16 0.002-0.318 0.026-0.471 0.071l12.844 12.791 12.88-12.862z"></path>
<path d="M30.942 6.569l-12.942 12.889c-0.333 0.331-0.784 0.517-1.253 0.517s-0.92-0.186-1.253-0.517l-12.827-12.791c-0.039 0.145-0.060 0.294-0.062 0.444v17.778c0 0.471 0.187 0.924 0.521 1.257s0.786 0.521 1.257 0.521h24.889c0.471 0 0.924-0.187 1.257-0.521s0.521-0.786 0.521-1.257v-17.778c-0.007-0.185-0.043-0.368-0.107-0.542zM5.6 24.889h-1.236v-1.271l6.462-6.409 1.253 1.253-6.48 6.427zM29.253 24.889h-1.244l-6.48-6.427 1.253-1.253 6.462 6.409 0.009 1.271z"></path>
</symbol>
<symbol id="icon-linkedin" viewBox="0 0 32 32">
<path d="M16 0c-8.837 0-16 7.163-16 16s7.163 16 16 16c8.837 0 16-7.163 16-16s-7.163-16-16-16zM12.083 22.632h-3.24v-10.427h3.24v10.427zM10.443 10.925c-1.023 0-1.685-0.725-1.685-1.622 0-0.915 0.682-1.618 1.727-1.618s1.685 0.703 1.705 1.618c0 0.897-0.66 1.622-1.747 1.622zM23.917 22.632h-3.24v-5.778c0-1.345-0.47-2.258-1.642-2.258-0.895 0-1.427 0.618-1.662 1.213-0.087 0.212-0.108 0.512-0.108 0.81v6.012h-3.242v-7.1c0-1.302-0.042-2.39-0.085-3.327h2.815l0.148 1.448h0.065c0.427-0.68 1.472-1.683 3.22-1.683 2.132 0 3.73 1.428 3.73 4.498v6.165z"></path>
</symbol>
<symbol id="icon-burger-menu" viewBox="0 0 59 32">
<path stroke-linejoin="round" stroke-linecap="round" stroke-miterlimit="4" stroke-width="2.4242" d="M1.576 1.212h56.242M1.576 15.758h56.242M1.576 30.303h56.242"></path>
</symbol>
<symbol id="icon-logo" viewBox="0 0 49 32">
<path fill="#81ab3c" style="fill: var(--color1, #81ab3c)" d="M16.864 2.729c-0.286 0.25-0.557 0.511-0.814 0.782-0.25 0.264-0.489 0.546-0.718 0.846 0.75 0.15 1.457 0.4 2.121 0.75 0.671 0.35 1.257 0.793 1.757 1.329s0.896 1.164 1.189 1.886c0.293 0.714 0.439 1.511 0.439 2.389 0 0.979-0.146 1.868-0.439 2.668-0.286 0.793-0.686 1.5-1.2 2.121-0.514 0.614-1.121 1.146-1.821 1.596s-1.461 0.825-2.282 1.125c-0.821 0.293-1.686 0.507-2.593 0.643-0.9 0.143-1.811 0.214-2.732 0.214-0.321 0-0.657-0.007-1.007-0.021-0.35-0.007-0.689-0.025-1.018-0.054-0.321-0.021-0.625-0.057-0.911-0.107-0.279-0.043-0.507-0.1-0.686-0.171 0.25-0.207 0.479-0.418 0.686-0.632s0.404-0.436 0.589-0.664c-0.75-0.15-1.461-0.386-2.132-0.707s-1.261-0.729-1.768-1.221c-0.5-0.5-0.896-1.093-1.189-1.779s-0.439-1.475-0.439-2.368c0-1.036 0.168-1.971 0.504-2.807 0.343-0.843 0.807-1.586 1.393-2.229 0.593-0.65 1.286-1.207 2.079-1.671 0.793-0.471 1.646-0.857 2.561-1.157 0.914-0.307 1.864-0.532 2.85-0.675 0.993-0.143 1.975-0.214 2.946-0.214 0.421 0 0.846 0.011 1.275 0.032 0.436 0.021 0.889 0.054 1.361 0.096zM16.029 9.789c0-0.414-0.050-0.786-0.15-1.114-0.1-0.336-0.239-0.636-0.418-0.9s-0.393-0.493-0.643-0.686c-0.243-0.193-0.511-0.361-0.804-0.504-0.114 0.257-0.218 0.514-0.311 0.771-0.086 0.257-0.168 0.521-0.246 0.793-0.414-0.143-0.804-0.239-1.168-0.289-0.357-0.057-0.689-0.086-0.996-0.086-0.536 0-1.079 0.096-1.629 0.289-0.55 0.186-1.046 0.457-1.489 0.814-0.436 0.357-0.793 0.789-1.071 1.296s-0.418 1.075-0.418 1.704c0 0.321 0.046 0.636 0.139 0.943 0.1 0.3 0.236 0.589 0.407 0.868 0.179 0.279 0.386 0.546 0.621 0.804 0.243 0.25 0.504 0.489 0.782 0.718 0.1-0.3 0.175-0.596 0.225-0.889 0.057-0.3 0.093-0.618 0.107-0.954 0.471 0.243 0.921 0.411 1.35 0.504 0.436 0.093 0.839 0.139 1.211 0.139 0.557 0 1.104-0.096 1.639-0.289 0.543-0.193 1.025-0.471 1.446-0.836 0.429-0.364 0.771-0.807 1.029-1.329s0.386-1.111 0.386-1.768zM43.050 3.018c-0.307 0.693-0.568 1.357-0.782 1.993s-0.389 1.25-0.525 1.843c-0.129 0.586-0.225 1.15-0.289 1.693-0.057 0.536-0.086 1.054-0.086 1.554 0 0.95 0.096 1.825 0.289 2.625 0.193 0.793 0.443 1.521 0.75 2.186 0.307 0.657 0.654 1.254 1.039 1.789s0.768 1.014 1.146 1.436c-0.3-0.036-0.586-0.064-0.857-0.086s-0.529-0.032-0.771-0.032c-0.371 0-0.725 0.021-1.061 0.064s-0.668 0.107-0.996 0.193c-0.329 0.079-0.661 0.182-0.996 0.311s-0.693 0.279-1.071 0.45c-0.407-1.157-0.729-2.325-0.964-3.504-0.229-1.186-0.375-2.389-0.439-3.611-0.514 1.021-0.95 2.086-1.307 3.193s-0.604 2.296-0.739 3.568c-0.086 0-0.275 0.004-0.568 0.011s-0.646 0.029-1.061 0.064c-0.407 0.036-0.85 0.089-1.329 0.161-0.471 0.079-0.932 0.189-1.382 0.332-0.121-1.379-0.354-2.657-0.696-3.836-0.343-1.186-0.782-2.314-1.318-3.386-0.143 2.414-0.604 4.75-1.382 7.007-1.507-0.679-3.125-1.018-4.854-1.018-0.286 0-0.575 0.011-0.868 0.032s-0.589 0.050-0.889 0.086c1.286-1.357 2.264-2.875 2.936-4.554 0.679-1.679 1.018-3.525 1.018-5.539 0-0.514-0.021-1.036-0.064-1.564-0.621-0.629-1.275-1.25-1.961-1.864s-1.414-1.243-2.186-1.886c0.129 0.036 0.293 0.082 0.493 0.139 0.2 0.050 0.436 0.1 0.707 0.15s0.571 0.093 0.9 0.129c0.329 0.029 0.686 0.043 1.071 0.043 0.686 0 1.439-0.075 2.261-0.225 0.829-0.15 1.707-0.432 2.636-0.846 0.536 0.957 1.068 2.018 1.596 3.182 0.221 0.493 0.454 1.036 0.696 1.629 0.25 0.593 0.496 1.225 0.739 1.896 0.243 0.664 0.479 1.364 0.707 2.1 0.236 0.736 0.454 1.5 0.654 2.293 0.414-1.164 0.807-2.246 1.179-3.246 0.379-1 0.729-1.954 1.050-2.861 0.321-0.914 0.607-1.8 0.857-2.657 0.257-0.857 0.471-1.732 0.643-2.625 0.5 0.3 1.036 0.532 1.607 0.696 0.571 0.157 1.132 0.275 1.682 0.354 0.55 0.071 1.068 0.114 1.554 0.129 0.493 0.007 0.904 0.011 1.232 0.011z"></path>
<path fill="#fff" style="fill: var(--color2, #fff)" d="M1.752 29.714l1.024-5.12h0.592l1.536 3.877-0.314-0.007 3.006-3.869h0.629l-1.024 5.12h-0.702l0.812-4.037 0.183 0.015-2.67 3.401h-0.336l-1.382-3.416 0.154 0.022-0.805 4.016h-0.702zM10.456 29.758c-0.371 0-0.692-0.068-0.966-0.205-0.268-0.141-0.478-0.336-0.629-0.585-0.151-0.254-0.227-0.549-0.227-0.885 0-0.439 0.098-0.829 0.293-1.17 0.195-0.346 0.463-0.617 0.805-0.812 0.346-0.2 0.739-0.3 1.178-0.3 0.366 0 0.685 0.068 0.958 0.205s0.483 0.329 0.629 0.578c0.151 0.249 0.227 0.544 0.227 0.885 0 0.439-0.098 0.831-0.293 1.178-0.195 0.341-0.463 0.612-0.805 0.812-0.336 0.2-0.727 0.3-1.17 0.3zM10.5 29.144c0.293 0 0.553-0.071 0.783-0.212s0.407-0.334 0.534-0.578c0.132-0.249 0.197-0.532 0.197-0.848 0-0.341-0.1-0.607-0.3-0.797-0.2-0.195-0.485-0.293-0.856-0.293-0.288 0-0.546 0.071-0.775 0.212-0.229 0.137-0.41 0.329-0.541 0.578-0.132 0.244-0.197 0.527-0.197 0.848 0 0.336 0.1 0.602 0.3 0.797s0.485 0.293 0.856 0.293zM13.285 29.714l1.082-5.427h0.702l-1.082 5.427h-0.702zM17.164 29.758c-0.375 0-0.702-0.068-0.98-0.205-0.273-0.141-0.485-0.336-0.636-0.585-0.151-0.254-0.227-0.549-0.227-0.885 0-0.439 0.098-0.829 0.293-1.17 0.195-0.346 0.466-0.617 0.812-0.812 0.346-0.2 0.739-0.3 1.178-0.3 0.375 0 0.697 0.071 0.965 0.212 0.268 0.137 0.478 0.346 0.629 0.629l-0.592 0.329c-0.098-0.19-0.237-0.329-0.417-0.417-0.176-0.093-0.388-0.139-0.636-0.139-0.293 0-0.553 0.071-0.783 0.212-0.229 0.137-0.41 0.329-0.541 0.578-0.132 0.244-0.198 0.527-0.198 0.848 0 0.336 0.1 0.602 0.3 0.797 0.205 0.195 0.492 0.293 0.863 0.293 0.229 0 0.444-0.046 0.644-0.139 0.205-0.093 0.375-0.229 0.512-0.41l0.512 0.366c-0.176 0.249-0.415 0.444-0.717 0.585s-0.629 0.212-0.98 0.212zM22.207 25.801c0.341 0 0.627 0.068 0.856 0.205s0.388 0.336 0.475 0.6c0.093 0.258 0.102 0.57 0.029 0.936l-0.432 2.172h-0.702l0.432-2.172c0.073-0.351 0.039-0.624-0.102-0.819s-0.395-0.293-0.761-0.293c-0.375 0-0.688 0.102-0.936 0.307-0.249 0.2-0.415 0.51-0.497 0.929l-0.41 2.048h-0.702l1.082-5.427h0.702l-0.534 2.662-0.161-0.3c0.185-0.293 0.419-0.507 0.702-0.644 0.288-0.137 0.607-0.205 0.958-0.205zM26.139 29.758c-0.327 0-0.619-0.066-0.878-0.198-0.258-0.137-0.463-0.329-0.614-0.578-0.146-0.249-0.219-0.549-0.219-0.9 0-0.332 0.054-0.636 0.161-0.914 0.112-0.278 0.266-0.519 0.461-0.724 0.2-0.205 0.434-0.363 0.702-0.475s0.558-0.168 0.87-0.168c0.336 0 0.622 0.058 0.856 0.176s0.415 0.29 0.541 0.519c0.127 0.224 0.19 0.5 0.19 0.826 0 0.478-0.083 0.902-0.249 1.273-0.166 0.366-0.405 0.651-0.717 0.856-0.307 0.205-0.675 0.307-1.104 0.307zM26.293 29.144c0.293 0 0.553-0.071 0.783-0.212s0.407-0.334 0.534-0.578c0.132-0.249 0.198-0.532 0.198-0.848 0-0.341-0.1-0.607-0.3-0.797-0.2-0.195-0.485-0.293-0.856-0.293-0.288 0-0.546 0.071-0.775 0.212-0.229 0.137-0.41 0.329-0.541 0.578-0.132 0.244-0.198 0.527-0.198 0.848 0 0.336 0.1 0.602 0.3 0.797s0.485 0.293 0.856 0.293zM27.412 29.714l0.205-1.002 0.234-0.9 0.095-0.922 0.205-1.053h0.702l-0.768 3.877h-0.673zM32.171 25.801c0.341 0 0.627 0.068 0.856 0.205s0.388 0.336 0.475 0.6c0.093 0.258 0.102 0.57 0.029 0.936l-0.432 2.172h-0.702l0.432-2.172c0.073-0.351 0.039-0.624-0.102-0.819s-0.395-0.293-0.761-0.293c-0.375 0-0.688 0.102-0.936 0.307-0.249 0.2-0.415 0.51-0.497 0.929l-0.41 2.048h-0.702l0.768-3.877h0.673l-0.219 1.112-0.132-0.3c0.185-0.293 0.419-0.507 0.702-0.644 0.288-0.137 0.607-0.205 0.958-0.205zM36.214 29.758c-0.371 0-0.692-0.068-0.965-0.205-0.268-0.141-0.478-0.336-0.629-0.585-0.151-0.254-0.227-0.549-0.227-0.885 0-0.439 0.097-0.829 0.293-1.17 0.195-0.346 0.463-0.617 0.805-0.812 0.346-0.2 0.739-0.3 1.178-0.3 0.366 0 0.685 0.068 0.958 0.205s0.483 0.329 0.629 0.578c0.151 0.249 0.227 0.544 0.227 0.885 0 0.439-0.097 0.831-0.293 1.178-0.195 0.341-0.463 0.612-0.805 0.812-0.336 0.2-0.727 0.3-1.17 0.3zM36.257 29.144c0.293 0 0.553-0.071 0.783-0.212s0.407-0.334 0.534-0.578c0.132-0.249 0.197-0.532 0.197-0.848 0-0.341-0.1-0.607-0.3-0.797-0.2-0.195-0.485-0.293-0.856-0.293-0.288 0-0.546 0.071-0.775 0.212-0.229 0.137-0.41 0.329-0.541 0.578-0.132 0.244-0.197 0.527-0.197 0.848 0 0.336 0.1 0.602 0.3 0.797s0.485 0.293 0.856 0.293zM39.952 29.714l-0.929-3.877h0.702l0.819 3.511h-0.351l2.231-3.511h0.709l-2.465 3.877h-0.717zM44.618 29.758c-0.327 0-0.619-0.066-0.878-0.198-0.258-0.137-0.463-0.329-0.614-0.578-0.146-0.249-0.219-0.549-0.219-0.9 0-0.332 0.054-0.636 0.161-0.914 0.112-0.278 0.266-0.519 0.461-0.724 0.2-0.205 0.434-0.363 0.702-0.475s0.558-0.168 0.87-0.168c0.336 0 0.622 0.058 0.856 0.176s0.415 0.29 0.541 0.519c0.127 0.224 0.19 0.5 0.19 0.826 0 0.478-0.083 0.902-0.249 1.273-0.166 0.366-0.405 0.651-0.717 0.856-0.307 0.205-0.675 0.307-1.104 0.307zM44.772 29.144c0.293 0 0.553-0.071 0.783-0.212s0.407-0.334 0.534-0.578c0.132-0.249 0.197-0.532 0.197-0.848 0-0.341-0.1-0.607-0.3-0.797-0.2-0.195-0.485-0.293-0.856-0.293-0.288 0-0.546 0.071-0.775 0.212-0.229 0.137-0.41 0.329-0.541 0.578-0.132 0.244-0.197 0.527-0.197 0.848 0 0.336 0.1 0.602 0.3 0.797s0.485 0.293 0.856 0.293zM45.891 29.714l0.205-1.002 0.234-0.9 0.095-0.922 0.205-1.053h0.702l-0.768 3.877h-0.673z"></path>
</symbol>
<symbol id="icon-telegram" viewBox="0 0 32 32">
<path d="M15.925 0c-4.23 0.020-8.281 1.714-11.265 4.713s-4.66 7.057-4.66 11.287c0 4.243 1.686 8.313 4.686 11.314s7.070 4.686 11.314 4.686 8.313-1.686 11.314-4.686c3.001-3.001 4.686-7.070 4.686-11.314s-1.686-8.313-4.686-11.314c-3.001-3.001-7.070-4.686-11.314-4.686-0.025-0-0.050-0-0.075 0zM22.541 9.632c0.133-0.003 0.428 0.031 0.62 0.187 0.128 0.111 0.209 0.265 0.228 0.433 0.021 0.124 0.048 0.408 0.027 0.629-0.24 2.531-1.283 8.669-1.813 11.503-0.224 1.2-0.665 1.601-1.093 1.64-0.928 0.087-1.633-0.613-2.533-1.203-1.408-0.924-2.204-1.499-3.571-2.4-1.58-1.040-0.556-1.613 0.344-2.547 0.236-0.245 4.329-3.969 4.409-4.307 0.009-0.043 0.019-0.2-0.075-0.283s-0.232-0.055-0.332-0.032c-0.141 0.032-2.391 1.52-6.748 4.46-0.64 0.44-1.217 0.653-1.736 0.64-0.571-0.011-1.669-0.321-2.487-0.587-1.003-0.327-1.799-0.499-1.729-1.052 0.036-0.288 0.433-0.583 1.191-0.884 4.664-2.032 7.773-3.372 9.331-4.019 4.443-1.848 5.367-2.169 5.968-2.18z"></path>
</symbol>
<symbol id="icon-telephone" viewBox="0 0 32 32">
<path d="M29.72 25.84l-7.13-7.13c-0.153-0.151-0.352-0.247-0.566-0.273s-0.43 0.021-0.614 0.133c-1.286 0.778-2.246 1.997-2.7 3.43-0.23 0.72-1.070 1.050-1.72 0.66l-0.020-0.020c-3.123-1.873-5.737-4.487-7.61-7.61 0-0.010-0.010-0.020-0.010-0.020-0.4-0.65-0.070-1.49 0.65-1.72 1.436-0.449 2.657-1.41 3.43-2.7 0.23-0.38 0.17-0.86-0.14-1.18l-7.13-7.13c-0.153-0.151-0.352-0.247-0.566-0.273s-0.43 0.021-0.614 0.133c-0.872 0.523-1.6 1.255-2.118 2.13s-0.811 1.864-0.852 2.88v0.010c-0.010 0.1-0.010 0.2-0.010 0.3 0 0.14 0.010 0.27 0.020 0.4 0.119 3.96 1.252 7.823 3.29 11.22 1.87 3.12 4.49 5.74 7.61 7.61l0.010 0.010c3.44 2.070 7.36 3.2 11.37 3.29 0.080 0 0.16 0.010 0.24 0.010h0.56v-0.020c0.972-0.082 1.911-0.393 2.74-0.908s1.525-1.218 2.030-2.052c0.22-0.38 0.16-0.87-0.15-1.18z"></path>
</symbol>
<symbol id="icon-copyright" viewBox="0 0 32 32">
<path d="M16 3.5c-2.472 0-4.889 0.733-6.945 2.107s-3.658 3.326-4.604 5.61c-0.946 2.284-1.194 4.797-0.711 7.222s1.673 4.652 3.421 6.4 3.975 2.939 6.4 3.421c2.425 0.482 4.938 0.235 7.222-0.711s4.236-2.548 5.61-4.604c1.373-2.056 2.107-4.472 2.107-6.945-0.004-3.314-1.322-6.491-3.665-8.835s-5.521-3.662-8.835-3.665zM16 27.5c-2.274 0-4.498-0.674-6.389-1.938s-3.365-3.060-4.236-5.161c-0.87-2.101-1.098-4.414-0.654-6.644s1.539-4.28 3.147-5.888c1.608-1.608 3.657-2.704 5.888-3.147s4.543-0.216 6.644 0.654c2.101 0.87 3.897 2.344 5.161 4.236s1.938 4.115 1.938 6.389c-0.003 3.049-1.216 5.972-3.372 8.128s-5.079 3.369-8.128 3.372zM20.4 19.301c-0.693 0.923-1.658 1.605-2.76 1.949s-2.284 0.332-3.379-0.033c-1.095-0.365-2.047-1.065-2.722-2.002s-1.038-2.061-1.038-3.216 0.363-2.279 1.038-3.216c0.675-0.936 1.627-1.637 2.722-2.002s2.277-0.377 3.379-0.033c1.102 0.344 2.068 1.026 2.76 1.949 0.040 0.053 0.068 0.112 0.085 0.176s0.020 0.13 0.011 0.195c-0.009 0.065-0.031 0.128-0.064 0.184s-0.078 0.106-0.13 0.146c-0.052 0.039-0.112 0.068-0.176 0.085s-0.13 0.020-0.195 0.011c-0.065-0.009-0.128-0.031-0.184-0.065s-0.106-0.078-0.145-0.13c-0.567-0.756-1.357-1.314-2.258-1.595s-1.869-0.272-2.765 0.026c-0.896 0.299-1.675 0.872-2.228 1.638s-0.849 1.687-0.849 2.631c0 0.944 0.297 1.865 0.849 2.631s1.332 1.339 2.228 1.638c0.896 0.299 1.863 0.308 2.765 0.026s1.692-0.84 2.258-1.595c0.080-0.106 0.198-0.176 0.33-0.195s0.265 0.016 0.371 0.095 0.176 0.198 0.195 0.33c0.019 0.131-0.016 0.265-0.095 0.371z"></path>
</symbol>
<symbol id="icon-css" viewBox="0 0 32 32">
<path d="M1.066 1.067v-1.067c-0.148 0-0.294 0.031-0.429 0.090s-0.256 0.146-0.356 0.255c-0.1 0.109-0.176 0.237-0.224 0.377s-0.066 0.288-0.054 0.435l1.062-0.090zM30.933 1.067l1.062 0.090c0.012-0.147-0.006-0.295-0.054-0.435s-0.124-0.268-0.224-0.377-0.221-0.195-0.356-0.255c-0.135-0.059-0.281-0.090-0.429-0.090v1.067zM28.8 26.667l0.337 1.011c0.198-0.066 0.372-0.189 0.501-0.353s0.207-0.363 0.224-0.571l-1.062-0.087zM16 30.933l-0.337 1.011c0.219 0.073 0.455 0.073 0.674 0l-0.337-1.011zM3.2 26.667l-1.062 0.087c0.017 0.208 0.095 0.406 0.224 0.571s0.303 0.287 0.501 0.353l0.337-1.011zM22.4 7.467h1.067v-1.067h-1.067v1.067zM22.4 20.267l0.337 1.011 0.73-0.243v-0.768h-1.067zM16 22.4l-0.337 1.011 0.337 0.113 0.337-0.113-0.337-1.011zM9.6 20.267h-1.067v0.768l0.73 0.243 0.337-1.011zM1.066 2.133h29.867v-2.133h-29.867v2.133zM29.87 0.977l-2.133 25.6 2.125 0.177 2.133-25.598-2.125-0.179zM28.462 25.655l-12.8 4.267 0.674 2.022 12.8-4.267-0.674-2.022zM16.337 29.922l-12.8-4.267-0.674 2.022 12.8 4.267 0.674-2.022zM4.262 26.579l-2.133-25.6-2.125 0.177 2.133 25.598 2.125-0.175zM22.4 6.4h-13.867v2.133h13.867v-2.133zM12.8 14.933h9.6v-2.133h-9.6v2.133zM21.333 13.867v6.4h2.133v-6.4h-2.133zM22.062 19.255l-6.4 2.133 0.674 2.022 6.4-2.133-0.674-2.022zM16.337 21.389l-6.4-2.133-0.674 2.022 6.4 2.133 0.674-2.022zM10.666 20.267v-3.2h-2.133v3.2h2.133zM21.333 7.467v6.4h2.133v-6.4h-2.133z"></path>
</symbol>
<symbol id="icon-family" viewBox="0 0 32 32">
<path stroke-linejoin="round" stroke-linecap="round" stroke-miterlimit="4" stroke-width="1.3333" d="M10.843 2.638c3.048-1.188 6.413-1.287 9.525-0.281s5.782 3.058 7.557 5.806c1.775 2.748 2.545 6.025 2.182 9.276s-1.838 6.277-4.175 8.565M18.635 29.811c-2.773 0.524-5.639 0.209-8.233-0.904s-4.796-2.974-6.327-5.345-2.32-5.144-2.268-7.966c0.053-2.822 0.945-5.564 2.563-7.876"></path>
<path stroke-linejoin="round" stroke-linecap="round" stroke-miterlimit="4" stroke-width="1.3333" d="M7.295 6.305c0.98 0 1.775-0.795 1.775-1.775s-0.795-1.775-1.775-1.775c-0.98 0-1.775 0.795-1.775 1.775s0.795 1.775 1.775 1.775z"></path>
<path stroke-linejoin="round" stroke-linecap="round" stroke-miterlimit="4" stroke-width="1.3333" d="M24.412 28.561c0.001-0.98-0.792-1.776-1.772-1.777s-1.776 0.792-1.777 1.772c-0.001 0.98 0.792 1.776 1.772 1.777s1.776-0.792 1.777-1.772z"></path>
<path stroke-linejoin="round" stroke-linecap="round" stroke-miterlimit="4" stroke-width="1.3333" d="M24.259 12.59c0.98 0 1.775-0.795 1.775-1.775s-0.795-1.775-1.775-1.775c-0.98 0-1.775 0.795-1.775 1.775s0.795 1.775 1.775 1.775z"></path>
<path stroke-linejoin="round" stroke-linecap="round" stroke-miterlimit="4" stroke-width="1.3333" d="M25.946 14.284c0.37 2.31-0.070 4.676-1.245 6.698s-3.014 3.576-5.204 4.398c-1.635 0.614-3.402 0.795-5.128 0.526s-3.353-0.98-4.724-2.063c-1.371-1.083-2.438-2.502-3.099-4.119s-0.893-3.377-0.674-5.11 0.883-3.38 1.926-4.781c1.043-1.401 2.431-2.509 4.028-3.217s3.35-0.99 5.089-0.821c1.739 0.169 3.404 0.785 4.835 1.787"></path>
<path stroke-linejoin="round" stroke-linecap="round" stroke-miterlimit="4" stroke-width="1.3333" d="M16.059 15.523c0.924 0 1.673-0.749 1.673-1.673s-0.749-1.673-1.673-1.673-1.673 0.749-1.673 1.673c0 0.924 0.749 1.673 1.673 1.673z"></path>
<path stroke-linejoin="round" stroke-linecap="round" stroke-miterlimit="4" stroke-width="1.3333" d="M12.273 20.257c-0.668 0.031-0.74-0.262-0.762-0.583v-1.322c1.869-2.193 7.375-1.916 8.844 0.045v1.098c-0.060 0.255-0.034 0.563-0.375 0.65l-7.707 0.112z"></path>
</symbol>
<symbol id="icon-headphone" viewBox="0 0 32 32">
<path d="M25.115 22.044c-0.051 0.155-0.162 0.283-0.308 0.357s-0.315 0.086-0.47 0.034c-0.155-0.051-0.283-0.162-0.357-0.308s-0.086-0.315-0.034-0.47c0.441-1.324 0.67-2.752 0.67-4.222 0-5.815-3.657-9.738-8.615-9.738s-8.615 3.921-8.615 9.738c-0.004 1.434 0.222 2.859 0.67 4.222 0.051 0.155 0.039 0.324-0.034 0.47s-0.202 0.257-0.357 0.308c-0.155 0.051-0.324 0.039-0.47-0.034s-0.257-0.202-0.308-0.357c-0.488-1.487-0.735-3.044-0.731-4.609 0-6.476 4.188-10.969 9.846-10.969s9.846 4.492 9.846 10.969c0.004 1.566-0.243 3.122-0.731 4.609z"></path>
<path d="M11.049 24.657c-0.975-0.019-1.904-0.423-2.582-1.124s-1.052-1.642-1.039-2.618v-0.027c0.006-0.481 0.108-0.957 0.298-1.399s0.466-0.843 0.811-1.178c0.345-0.336 0.753-0.6 1.2-0.779s0.925-0.267 1.406-0.26h0.021c0.325 0.007 0.634 0.141 0.861 0.375s0.35 0.548 0.346 0.873l-0.066 4.923c-0.002 0.162-0.037 0.322-0.101 0.471s-0.157 0.283-0.274 0.396-0.254 0.201-0.405 0.261c-0.151 0.059-0.312 0.088-0.474 0.085zM21.033 17.231c0.975 0.019 1.904 0.423 2.582 1.124s1.052 1.642 1.039 2.618v0.027c-0.007 0.481-0.108 0.957-0.298 1.399s-0.466 0.843-0.811 1.178c-0.345 0.336-0.753 0.6-1.2 0.779s-0.925 0.267-1.406 0.26h-0.020c-0.325-0.006-0.635-0.141-0.861-0.375s-0.351-0.548-0.346-0.873l0.067-4.923c0.002-0.162 0.036-0.322 0.101-0.471s0.157-0.284 0.274-0.396c0.117-0.113 0.254-0.201 0.405-0.261s0.312-0.088 0.474-0.085z"></path>
<path d="M16 30.154c-7.817 0-14.154-6.337-14.154-14.154s6.337-14.154 14.154-14.154c7.817 0 14.154 6.337 14.154 14.154s-6.337 14.154-14.154 14.154zM16 31.384c8.497 0 15.385-6.887 15.385-15.385s-6.887-15.385-15.385-15.385-15.385 6.887-15.385 15.385c0 8.497 6.887 15.385 15.385 15.385z"></path>
</symbol>
<symbol id="icon-html" viewBox="0 0 32 32">
<path d="M1.892 0l2.568 28.8 11.524 3.2 11.554-3.204 2.572-28.796h-28.218zM25.336 26.964l-9.288 2.574v0.014l-0.024-0.008-0.024 0.008v-0.014l-9.288-2.574-2.196-24.608h23.016l-2.196 24.608zM20.336 16.568l-0.408 4.58-3.944 1.064-3.934-1.060-0.252-2.82h-3.546l0.494 5.548 7.252 2.006 7.23-2.006 0.97-10.844h-12.874l-0.322-3.618h13.516l0.316-3.532h-17.694l0.954 10.682h12.242z"></path>
</symbol>
<symbol id="icon-javascript" viewBox="0 0 32 32">
<path d="M0 3.5c0-1.932 1.568-3.5 3.5-3.5h25c1.932 0 3.5 1.568 3.5 3.5v4c0 0.398-0.158 0.779-0.439 1.061s-0.663 0.439-1.061 0.439-0.779-0.158-1.061-0.439c-0.281-0.281-0.439-0.663-0.439-1.061v-4c0-0.133-0.053-0.26-0.146-0.354s-0.221-0.146-0.354-0.146h-25c-0.133 0-0.26 0.053-0.354 0.146s-0.146 0.221-0.146 0.354v25c0 0.276 0.224 0.5 0.5 0.5h27c0.398 0 0.779 0.158 1.061 0.439s0.439 0.663 0.439 1.061-0.158 0.779-0.439 1.061c-0.281 0.281-0.663 0.439-1.061 0.439h-27c-0.928 0-1.819-0.369-2.475-1.025s-1.025-1.547-1.025-2.475v-25zM16.5 11.5c0.398 0 0.779 0.158 1.061 0.439s0.439 0.663 0.439 1.061v8c0 2.010-0.552 3.516-1.69 4.464-1.086 0.906-2.402 1.036-3.31 1.036-0.398 0-0.779-0.158-1.061-0.439s-0.439-0.663-0.439-1.061 0.158-0.779 0.439-1.061c0.281-0.281 0.663-0.439 1.061-0.439 0.692 0 1.126-0.12 1.39-0.34 0.212-0.176 0.61-0.67 0.61-2.16v-8c0-0.398 0.158-0.779 0.439-1.061s0.663-0.439 1.061-0.439zM22.552 13.16c0.836-0.996 2.15-1.66 3.948-1.66 1.67 0 2.93 0.572 3.78 1.47 0.263 0.291 0.402 0.673 0.387 1.065s-0.183 0.763-0.469 1.032c-0.285 0.269-0.665 0.416-1.057 0.41s-0.766-0.167-1.042-0.447c-0.22-0.232-0.66-0.53-1.6-0.53-1 0-1.44 0.336-1.652 0.59-0.212 0.257-0.334 0.577-0.348 0.91 0 0.208 0.086 0.6 0.348 0.91 0.214 0.254 0.65 0.59 1.652 0.59 0.152 0 0.298 0.022 0.436 0.064 1.326 0.188 2.328 0.78 3.012 1.596 0.788 0.94 1.052 2.048 1.052 2.84s-0.264 1.9-1.052 2.84c-0.836 0.996-2.15 1.66-3.948 1.66-1.67 0-2.93-0.572-3.78-1.47-0.263-0.291-0.402-0.673-0.387-1.065s0.183-0.763 0.469-1.032c0.285-0.269 0.665-0.416 1.057-0.41s0.766 0.167 1.042 0.447c0.22 0.232 0.66 0.53 1.6 0.53 1 0 1.44-0.336 1.652-0.59 0.212-0.257 0.334-0.577 0.348-0.91 0-0.208-0.086-0.6-0.348-0.91-0.214-0.254-0.65-0.59-1.652-0.59-0.148 0-0.295-0.021-0.436-0.064-1.326-0.19-2.328-0.78-3.012-1.596-0.666-0.798-1.038-1.801-1.052-2.84 0-0.792 0.264-1.9 1.052-2.84z"></path>
</symbol>
<symbol id="icon-node-js" viewBox="0 0 32 32">
<path d="M16 31.75c-0.479 0-0.964-0.113-1.386-0.325l-4.407-2.281c-0.657-0.325-0.336-0.438-0.121-0.5 0.879-0.269 1.057-0.325 1.993-0.794 0.1-0.050 0.229-0.031 0.329 0.025l3.386 1.756c0.121 0.063 0.293 0.063 0.407 0l13.193-6.662c0.121-0.063 0.2-0.188 0.2-0.313v-13.325c0-0.131-0.079-0.25-0.207-0.319l-13.186-6.656c-0.121-0.063-0.286-0.063-0.407 0l-13.179 6.662c-0.129 0.062-0.207 0.187-0.207 0.319v13.319c0 0.125 0.079 0.25 0.207 0.306l3.614 1.825c1.964 0.856 3.164-0.15 3.164-1.169v-13.15c0-0.188 0.171-0.331 0.386-0.331h1.671c0.207 0 0.386 0.144 0.386 0.331v13.156c0 2.287-1.429 3.6-3.907 3.6-0.764 0-1.364 0-3.036-0.725l-3.457-1.744c-0.857-0.431-1.386-1.237-1.386-2.106v-13.319c0-0.862 0.529-1.675 1.386-2.106l13.179-6.663c0.836-0.412 1.943-0.412 2.771 0l13.193 6.669c0.857 0.431 1.386 1.238 1.386 2.106v13.319c0 0.863-0.529 1.669-1.386 2.106l-13.193 6.663c-0.421 0.212-0.9 0.325-1.386 0.325zM26.65 18.619c0-2.494-1.929-3.156-5.979-3.625-4.1-0.475-4.514-0.719-4.514-1.556 0-0.694 0.35-1.619 3.386-1.619 2.707 0 3.707 0.512 4.121 2.112 0.036 0.15 0.193 0.263 0.371 0.263h1.714c0.107 0 0.207-0.038 0.279-0.106s0.107-0.162 0.1-0.256c-0.264-2.756-2.357-4.037-6.586-4.037-3.764 0-6.007 1.387-6.007 3.719 0 2.525 2.236 3.225 5.843 3.538 4.321 0.369 4.657 0.925 4.657 1.669 0 1.287-1.186 1.837-3.964 1.837-3.493 0-4.257-0.769-4.514-2.287-0.029-0.163-0.186-0.281-0.379-0.281h-1.707c-0.214 0-0.379 0.15-0.379 0.331 0 1.944 1.207 4.262 6.986 4.262 4.171-0.006 6.571-1.45 6.571-3.962z"></path>
</symbol>
<symbol id="icon-photo" viewBox="0 0 32 32">
<path d="M14.729 11.076h14.631c-0.776-2.090-2.015-3.936-3.717-5.54-1.702-1.602-3.642-2.677-5.82-3.225l-5.093 8.764zM11.049 14.631l7.387-12.675c-0.326-0.059-0.731-0.104-1.216-0.133-0.487-0.030-0.894-0.044-1.22-0.044-1.956 0-3.778 0.37-5.467 1.111s-3.185 1.733-4.489 2.978l5.004 8.764zM2.222 19.556h10.098l-7.244-12.608c-1.041 1.282-1.851 2.68-2.43 4.192-0.578 1.512-0.868 3.132-0.868 4.86 0 0.622 0.037 1.223 0.112 1.801s0.185 1.163 0.332 1.755zM12.245 29.689l5.074-8.765h-14.679c0.776 2.089 2.027 3.936 3.751 5.54 1.724 1.602 3.676 2.677 5.854 3.225zM16 30.222c1.956 0 3.778-0.37 5.467-1.111s3.185-1.733 4.489-2.978l-5.005-8.764-7.317 12.608c0.326 0.082 0.713 0.143 1.161 0.183 0.448 0.041 0.85 0.062 1.205 0.062zM26.926 25.052c0.948-1.215 1.735-2.612 2.359-4.192 0.625-1.581 0.937-3.201 0.937-4.86 0-0.622-0.037-1.222-0.11-1.799s-0.185-1.163-0.334-1.757h-10.098l7.246 12.608zM16 32c-2.202 0-4.276-0.421-6.222-1.262s-3.641-1.985-5.084-3.431c-1.446-1.442-2.59-3.137-3.431-5.084-0.841-1.946-1.262-4.020-1.262-6.222 0-2.208 0.421-4.284 1.262-6.228 0.843-1.944 1.986-3.637 3.431-5.081 1.442-1.444 3.137-2.586 5.084-3.428 1.946-0.843 4.020-1.264 6.222-1.264 2.208 0 4.284 0.421 6.228 1.262 1.944 0.843 3.637 1.986 5.081 3.431 1.444 1.444 2.586 3.137 3.428 5.079 0.843 1.944 1.264 4.020 1.264 6.228 0 2.202-0.421 4.276-1.262 6.222s-1.985 3.641-3.431 5.084c-1.444 1.445-3.137 2.588-5.079 3.431-1.944 0.841-4.020 1.262-6.228 1.262z"></path>
</symbol>
<symbol id="icon-react" viewBox="0 0 32 32">
<path d="M9.7 4.744c-0.502 0.29-1.030 1.088-1.092 2.832-0.018 0.395-0.19 0.767-0.481 1.035s-0.675 0.411-1.070 0.397c-0.395-0.014-0.769-0.183-1.040-0.472s-0.417-0.671-0.407-1.067c0.076-2.136 0.752-4.262 2.59-5.324 1.844-1.064 4.030-0.58 5.922 0.428 0.351 0.187 0.614 0.506 0.729 0.887s0.076 0.792-0.111 1.143c-0.187 0.351-0.506 0.614-0.887 0.729s-0.792 0.076-1.143-0.111c-1.546-0.826-2.506-0.766-3.010-0.478zM17.742 7.342c0.152-0.126 0.327-0.22 0.515-0.278s0.386-0.078 0.582-0.060c0.196 0.019 0.387 0.076 0.561 0.168s0.328 0.218 0.454 0.37c1.172 1.421 2.222 2.939 3.14 4.536 2.080 3.604 3.362 7.296 3.708 10.392 0.172 1.546 0.12 3.018-0.24 4.28-0.366 1.27-1.074 2.42-2.262 3.106-1.438 0.83-3.1 0.714-4.618 0.16-1.524-0.556-3.094-1.606-4.59-2.972-0.289-0.269-0.461-0.642-0.477-1.037s0.124-0.78 0.391-1.072c0.266-0.292 0.637-0.467 1.032-0.487s0.781 0.117 1.076 0.38c1.32 1.204 2.558 1.992 3.594 2.368 1.044 0.38 1.7 0.29 2.092 0.062 0.328-0.19 0.66-0.576 0.876-1.334 0.22-0.768 0.29-1.82 0.144-3.12-0.29-2.598-1.4-5.894-3.326-9.226-0.834-1.45-1.787-2.827-2.85-4.118-0.126-0.152-0.22-0.327-0.278-0.515s-0.078-0.386-0.060-0.582c0.019-0.196 0.076-0.387 0.168-0.561s0.218-0.328 0.37-0.454z"></path>
<path d="M29 16.412c0-0.58-0.428-1.438-1.906-2.36-0.167-0.104-0.312-0.241-0.427-0.401s-0.196-0.342-0.241-0.534c-0.044-0.192-0.051-0.391-0.018-0.585s0.103-0.38 0.207-0.548c0.211-0.338 0.547-0.578 0.935-0.667 0.192-0.044 0.391-0.051 0.585-0.018s0.38 0.103 0.548 0.207c1.812 1.134 3.316 2.782 3.316 4.906 0 2.128-1.512 3.78-3.332 4.914-0.337 0.202-0.741 0.264-1.123 0.172s-0.714-0.331-0.922-0.665-0.277-0.736-0.191-1.12c0.086-0.384 0.319-0.719 0.65-0.933 1.488-0.928 1.918-1.788 1.918-2.368zM22.726 22.076c0.033 0.194 0.027 0.393-0.016 0.585s-0.125 0.374-0.239 0.534c-0.114 0.161-0.259 0.297-0.425 0.402s-0.353 0.176-0.547 0.209c-1.817 0.302-3.656 0.452-5.498 0.448-4.16 0-8-0.734-10.854-1.984-1.426-0.622-2.672-1.404-3.584-2.348-0.922-0.948-1.562-2.14-1.562-3.51 0-1.66 0.932-3.040 2.17-4.080 1.244-1.042 2.94-1.876 4.87-2.488 0.379-0.12 0.791-0.085 1.144 0.098 0.175 0.091 0.33 0.215 0.457 0.366s0.223 0.325 0.283 0.513c0.060 0.188 0.082 0.385 0.065 0.582s-0.072 0.387-0.163 0.562c-0.091 0.175-0.215 0.33-0.366 0.457s-0.325 0.223-0.513 0.283c-1.7 0.54-3.004 1.218-3.848 1.928-0.852 0.712-1.1 1.326-1.1 1.78 0 0.38 0.17 0.86 0.718 1.426 0.556 0.574 1.432 1.16 2.63 1.684 2.394 1.048 5.804 1.732 9.652 1.732 1.77 0 3.454-0.144 4.996-0.406 0.194-0.033 0.393-0.027 0.585 0.016s0.374 0.125 0.534 0.239c0.161 0.114 0.297 0.259 0.402 0.425s0.176 0.353 0.209 0.547z"></path>
<path d="M9.744 27.26c0.5 0.29 1.458 0.348 2.998-0.47 0.174-0.092 0.365-0.15 0.561-0.169s0.394 0.001 0.582 0.059 0.364 0.152 0.516 0.277c0.152 0.125 0.278 0.279 0.37 0.453s0.15 0.364 0.169 0.561c0.019 0.196-0.001 0.394-0.059 0.582s-0.152 0.364-0.277 0.516c-0.125 0.152-0.279 0.278-0.453 0.37-1.888 1.002-4.068 1.48-5.906 0.42-1.844-1.066-2.52-3.2-2.59-5.344-0.007-0.394 0.141-0.775 0.412-1.061s0.644-0.453 1.038-0.466c0.394-0.013 0.777 0.129 1.067 0.396s0.463 0.637 0.482 1.031c0.060 1.75 0.588 2.554 1.092 2.844zM7.976 18.994c-0.373-0.139-0.675-0.419-0.841-0.781s-0.181-0.774-0.043-1.147c0.604-1.63 1.394-3.314 2.36-4.986 2.080-3.604 4.636-6.56 7.144-8.408 1.252-0.922 2.552-1.612 3.826-1.93 1.282-0.32 2.634-0.282 3.82 0.404 1.44 0.83 2.168 2.326 2.448 3.92 0.282 1.598 0.156 3.482-0.28 5.46-0.035 0.199-0.11 0.389-0.221 0.558s-0.254 0.314-0.422 0.427-0.357 0.19-0.555 0.227c-0.199 0.038-0.403 0.035-0.6-0.009s-0.384-0.126-0.549-0.243c-0.165-0.117-0.304-0.266-0.409-0.439s-0.175-0.364-0.205-0.564c-0.030-0.2-0.018-0.404 0.033-0.599 0.382-1.744 0.446-3.212 0.254-4.3-0.192-1.092-0.6-1.614-0.992-1.84-0.328-0.19-0.83-0.284-1.594-0.092-0.776 0.194-1.72 0.66-2.774 1.436-2.104 1.548-4.404 4.16-6.326 7.492-0.841 1.447-1.559 2.962-2.146 4.53-0.138 0.373-0.419 0.675-0.781 0.841s-0.774 0.181-1.147 0.043z"></path>
<path d="M18.92 16.132c0 0.721-0.287 1.413-0.797 1.923s-1.202 0.797-1.923 0.797-1.413-0.287-1.923-0.797c-0.51-0.51-0.797-1.202-0.797-1.923s0.287-1.413 0.797-1.923c0.51-0.51 1.202-0.797 1.923-0.797s1.413 0.287 1.923 0.797c0.51 0.51 0.797 1.202 0.797 1.923z"></path>
</symbol>
<symbol id="icon-travel" viewBox="0 0 32 32">
<path stroke-linejoin="round" stroke-linecap="round" stroke-miterlimit="4" stroke-width="1.28" d="M15.67 29.76c7.753 0 14.038-6.16 14.038-13.76s-6.285-13.76-14.038-13.76c-7.753 0-14.038 6.161-14.038 13.76s6.285 13.76 14.038 13.76z"></path>
<path stroke-linejoin="round" stroke-linecap="round" stroke-miterlimit="4" stroke-width="1.28" d="M10.802 11.249c-4.027 3.966-5.694 9.349-5.036 14.502 5.259 0.621 10.745-1.036 14.773-5.001s5.694-9.349 5.036-14.502c-5.259-0.621-10.745 1.036-14.773 5.001z"></path>
<path stroke-linejoin="round" stroke-linecap="round" stroke-miterlimit="4" stroke-width="1.28" d="M20.517 11.228c-4.046-3.948-9.538-5.581-14.795-4.936-0.634 5.155 1.057 10.532 5.102 14.48s9.538 5.581 14.795 4.936c0.633-5.155-1.057-10.532-5.102-14.48z"></path>
</symbol>
</defs>
</svg>
