<svg width="48" height="48" viewBox="0 0 48 48" fill="none" xmlns="http://www.w3.org/2000/svg">
<g clip-path="url(#clip0_16972_111)">
<path d="M1.59926 1.6V0C1.37787 0.000103107 1.15892 0.046146 0.956254 0.135216C0.753582 0.224287 0.5716 0.354447 0.421818 0.517463C0.272035 0.68048 0.157711 0.872805 0.0860776 1.08228C0.0144439 1.29175 -0.012941 1.5138 0.00565495 1.7344L1.59926 1.6ZM46.3993 1.6L47.9929 1.7344C48.0115 1.5138 47.9841 1.29175 47.9124 1.08228C47.8408 0.872805 47.7265 0.68048 47.5767 0.517463C47.4269 0.354447 47.2449 0.224287 47.0423 0.135216C46.8396 0.046146 46.6206 0.000103107 46.3993 0V1.6ZM43.1993 40L43.7049 41.5168C44.0019 41.4177 44.2633 41.2335 44.4567 40.9872C44.6501 40.7409 44.767 40.4433 44.7929 40.1312L43.1993 40ZM23.9993 46.4L23.4937 47.9168C23.8218 48.0263 24.1767 48.0263 24.5049 47.9168L23.9993 46.4ZM4.79926 40L3.20566 40.1312C3.23151 40.4433 3.34838 40.7409 3.54178 40.9872C3.73518 41.2335 3.99661 41.4177 4.29366 41.5168L4.79926 40ZM33.5993 11.2H35.1993V9.6H33.5993V11.2ZM33.5993 30.4L34.1049 31.9168L35.1993 31.552V30.4H33.5993ZM23.9993 33.6L23.4937 35.1168L23.9993 35.2864L24.5049 35.1168L23.9993 33.6ZM14.3993 30.4H12.7993V31.552L13.8937 31.9168L14.3993 30.4ZM1.59926 3.2H46.3993V0L1.59926 0V3.2ZM44.8057 1.4656L41.6057 39.8656L44.7929 40.1312L47.9929 1.7344L44.8057 1.4656ZM42.6937 38.4832L23.4937 44.8832L24.5049 47.9168L43.7049 41.5168L42.6937 38.4832ZM24.5049 44.8832L5.30486 38.4832L4.29366 41.5168L23.4937 47.9168L24.5049 44.8832ZM6.39286 39.8688L3.19286 1.4688L0.00565495 1.7344L3.20566 40.1312L6.39286 39.8688ZM33.5993 9.6H12.7993V12.8H33.5993V9.6ZM19.1993 22.4H33.5993V19.2H19.1993V22.4ZM31.9993 20.8V30.4H35.1993V20.8H31.9993ZM33.0937 28.8832L23.4937 32.0832L24.5049 35.1168L34.1049 31.9168L33.0937 28.8832ZM24.5049 32.0832L14.9049 28.8832L13.8937 31.9168L23.4937 35.1168L24.5049 32.0832ZM15.9993 30.4V25.6H12.7993V30.4H15.9993ZM31.9993 11.2V20.8H35.1993V11.2H31.9993Z" fill="#FAC036"/>
</g>
<defs>
<clipPath id="clip0_16972_111">
<rect width="48" height="48" fill="white"/>
</clipPath>
</defs>
</svg>
