<svg width="24" height="24" viewBox="0 0 24 24" fill="none" xmlns="http://www.w3.org/2000/svg">
<g clip-path="url(#clip0_16973_151)">
<path d="M8.1325 1.97841C10.4185 1.08722 12.9421 1.01288 15.2765 1.76798C17.611 2.52309 19.613 4.06128 20.944 6.12241C22.2749 8.18349 22.8531 10.641 22.5806 13.0793C22.3082 15.5176 21.202 17.7869 19.449 19.5034M13.9765 22.3584C11.8967 22.7511 9.74698 22.515 7.80197 21.6803C5.85695 20.8455 4.20487 19.4499 3.05671 17.6718C1.90855 15.8937 1.31642 13.8138 1.35592 11.6976C1.39543 9.58135 2.06478 7.52493 3.2785 5.79091" stroke="white" stroke-linecap="round" stroke-linejoin="round"/>
<path d="M5.4715 4.72841C6.20659 4.72841 6.8025 4.1325 6.8025 3.39741C6.8025 2.66232 6.20659 2.06641 5.4715 2.06641C4.73641 2.06641 4.1405 2.66232 4.1405 3.39741C4.1405 4.1325 4.73641 4.72841 5.4715 4.72841Z" stroke="white" stroke-linecap="round" stroke-linejoin="round"/>
<path d="M18.309 21.4211C18.3101 20.686 17.7151 20.0892 16.98 20.0881C16.245 20.087 15.6481 20.682 15.647 21.417C15.6459 22.1521 16.2409 22.749 16.976 22.7501C17.711 22.7512 18.3079 22.1562 18.309 21.4211Z" stroke="white" stroke-linecap="round" stroke-linejoin="round"/>
<path d="M18.194 9.44252C18.9291 9.44252 19.525 8.84661 19.525 8.11152C19.525 7.37643 18.9291 6.78052 18.194 6.78052C17.4589 6.78052 16.863 7.37643 16.863 8.11152C16.863 8.84661 17.4589 9.44252 18.194 9.44252Z" stroke="white" stroke-linecap="round" stroke-linejoin="round"/>
<path d="M19.4595 10.713C19.7369 12.4452 19.4069 14.2201 18.5254 15.7368C17.6438 17.2535 16.265 18.4187 14.6225 19.035C13.3959 19.4955 12.0712 19.6314 10.7767 19.4294C9.48223 19.2274 8.26188 18.6944 7.23395 17.8821C6.20603 17.0697 5.4054 16.0056 4.90966 14.7929C4.41393 13.5801 4.23991 12.2599 4.40447 10.9601C4.56903 9.66031 5.06659 8.42509 5.84892 7.37415C6.63125 6.32322 7.67181 5.49221 8.86975 4.96169C10.0677 4.43117 11.3824 4.21913 12.6863 4.34611C13.9903 4.4731 15.2394 4.93481 16.3125 5.68648" stroke="white" stroke-linecap="round" stroke-linejoin="round"/>
<path d="M12.0445 11.6421C12.7376 11.6421 13.2995 11.0802 13.2995 10.3871C13.2995 9.69396 12.7376 9.13208 12.0445 9.13208C11.3514 9.13208 10.7895 9.69396 10.7895 10.3871C10.7895 11.0802 11.3514 11.6421 12.0445 11.6421Z" stroke="white" stroke-linecap="round" stroke-linejoin="round"/>
<path d="M9.20498 15.1929C8.70398 15.2164 8.64998 14.9964 8.63348 14.7559V13.7644C10.0355 12.1199 14.1645 12.3274 15.2665 13.7979V14.6214C15.2215 14.8129 15.241 15.0434 14.9855 15.1089L9.20498 15.1929Z" stroke="white" stroke-linecap="round" stroke-linejoin="round"/>
</g>
<defs>
<clipPath id="clip0_16973_151">
<rect width="24" height="24" fill="white"/>
</clipPath>
</defs>
</svg>
