<svg width="24" height="24" viewBox="0 0 24 24" fill="none" xmlns="http://www.w3.org/2000/svg">
<g clip-path="url(#clip0_16973_159)">
<path d="M18.8363 16.5332C18.7978 16.6495 18.7146 16.7457 18.6051 16.8007C18.4956 16.8557 18.3688 16.8649 18.2525 16.8263C18.1362 16.7878 18.04 16.7046 17.985 16.5951C17.9301 16.4856 17.9208 16.3588 17.9594 16.2425C18.2899 15.2492 18.4616 14.1785 18.4616 13.0763C18.4616 8.71478 15.7191 5.77293 12 5.77293C8.28094 5.77293 5.53847 8.71385 5.53847 13.0763C5.53557 14.1518 5.70511 15.2207 6.04063 16.2425C6.07919 16.3588 6.06997 16.4856 6.01501 16.5951C5.96004 16.7046 5.86384 16.7878 5.74755 16.8263C5.63126 16.8649 5.50442 16.8557 5.39493 16.8007C5.28544 16.7457 5.20226 16.6495 5.1637 16.5332C4.79734 15.4176 4.61223 14.2505 4.6154 13.0763C4.6154 8.21908 7.75663 4.84985 12 4.84985C16.2434 4.84985 19.3846 8.21908 19.3846 13.0763C19.3878 14.2505 19.2027 15.4176 18.8363 16.5332Z" fill="white"/>
<path d="M8.28647 18.4929C7.55491 18.4788 6.85865 18.1757 6.3498 17.65C5.84096 17.1242 5.56089 16.4183 5.57078 15.6867V15.6664C5.5756 15.3054 5.65148 14.9489 5.79409 14.6172C5.93671 14.2855 6.14326 13.9852 6.40196 13.7334C6.66065 13.4815 6.96643 13.2831 7.30181 13.1495C7.6372 13.0158 7.99562 12.9495 8.35663 12.9544H8.37232C8.61617 12.9593 8.8482 13.0604 9.0177 13.2358C9.1872 13.4112 9.2804 13.6465 9.27693 13.8904L9.22709 17.5827C9.22541 17.7043 9.19971 17.8244 9.15147 17.9361C9.10322 18.0477 9.03339 18.1487 8.94598 18.2333C8.85857 18.3179 8.75531 18.3844 8.64213 18.4289C8.52895 18.4735 8.40808 18.4952 8.28647 18.4929ZM15.7745 12.923C16.506 12.9371 17.2023 13.2401 17.7111 13.7659C18.22 14.2917 18.5001 14.9975 18.4902 15.7292V15.7495C18.4853 16.1105 18.4095 16.467 18.2669 16.7987C18.1242 17.1304 17.9177 17.4307 17.659 17.6825C17.4003 17.9344 17.0945 18.1328 16.7591 18.2664C16.4237 18.4001 16.0653 18.4664 15.7043 18.4615H15.6895C15.4455 18.4569 15.2133 18.3558 15.0436 18.1804C14.8739 18.005 14.7806 17.7695 14.784 17.5255L14.8339 13.8332C14.8355 13.7116 14.8612 13.5915 14.9095 13.4798C14.9577 13.3682 15.0276 13.2671 15.115 13.1826C15.2024 13.098 15.3056 13.0315 15.4188 12.987C15.532 12.9424 15.6529 12.9207 15.7745 12.923Z" fill="white"/>
<path fill-rule="evenodd" clip-rule="evenodd" d="M12 22.6153C17.8625 22.6153 22.6154 17.8623 22.6154 11.9999C22.6154 6.13743 17.8625 1.3845 12 1.3845C6.13755 1.3845 1.38462 6.13743 1.38462 11.9999C1.38462 17.8623 6.13755 22.6153 12 22.6153ZM12 23.5383C18.3729 23.5383 23.5385 18.3728 23.5385 11.9999C23.5385 5.62696 18.3729 0.461426 12 0.461426C5.62709 0.461426 0.461548 5.62696 0.461548 11.9999C0.461548 18.3728 5.62709 23.5383 12 23.5383Z" fill="white"/>
</g>
<defs>
<clipPath id="clip0_16973_159">
<rect width="24" height="24" fill="white"/>
</clipPath>
</defs>
</svg>
