<svg width="48" height="48" viewBox="0 0 48 48" fill="none" xmlns="http://www.w3.org/2000/svg">
<g clip-path="url(#clip0_16973_119)">
<path d="M0 5.25C0 2.352 2.352 0 5.25 0H42.75C45.648 0 48 2.352 48 5.25V11.25C48 11.8467 47.7629 12.419 47.341 12.841C46.919 13.2629 46.3467 13.5 45.75 13.5C45.1533 13.5 44.581 13.2629 44.159 12.841C43.7371 12.419 43.5 11.8467 43.5 11.25V5.25C43.5 5.05109 43.421 4.86032 43.2803 4.71967C43.1397 4.57902 42.9489 4.5 42.75 4.5H5.25C5.05109 4.5 4.86032 4.57902 4.71967 4.71967C4.57902 4.86032 4.5 5.05109 4.5 5.25V42.75C4.5 43.164 4.836 43.5 5.25 43.5H45.75C46.3467 43.5 46.919 43.7371 47.341 44.159C47.7629 44.581 48 45.1533 48 45.75C48 46.3467 47.7629 46.919 47.341 47.341C46.919 47.7629 46.3467 48 45.75 48H5.25C3.85761 48 2.52226 47.4469 1.53769 46.4623C0.553123 45.4777 0 44.1424 0 42.75L0 5.25ZM24.75 17.25C25.3467 17.25 25.919 17.4871 26.341 17.909C26.7629 18.331 27 18.9033 27 19.5V31.5C27 34.515 26.172 36.774 24.465 38.196C22.836 39.555 20.862 39.75 19.5 39.75C18.9033 39.75 18.331 39.5129 17.909 39.091C17.4871 38.669 17.25 38.0967 17.25 37.5C17.25 36.9033 17.4871 36.331 17.909 35.909C18.331 35.4871 18.9033 35.25 19.5 35.25C20.538 35.25 21.189 35.07 21.585 34.74C21.903 34.476 22.5 33.735 22.5 31.5V19.5C22.5 18.9033 22.7371 18.331 23.159 17.909C23.581 17.4871 24.1533 17.25 24.75 17.25ZM33.828 19.74C35.082 18.246 37.053 17.25 39.75 17.25C42.255 17.25 44.145 18.108 45.42 19.455C45.8151 19.8912 46.0236 20.4648 46.0007 21.0529C45.9779 21.641 45.7255 22.1967 45.2978 22.6009C44.87 23.0051 44.3009 23.2256 43.7125 23.2152C43.1241 23.2047 42.5631 22.9641 42.15 22.545C41.82 22.197 41.16 21.75 39.75 21.75C38.25 21.75 37.59 22.254 37.272 22.635C36.9543 23.0212 36.771 23.5004 36.75 24C36.75 24.312 36.879 24.9 37.272 25.365C37.593 25.746 38.247 26.25 39.75 26.25C39.978 26.25 40.197 26.283 40.404 26.346C42.393 26.628 43.896 27.516 44.922 28.74C46.104 30.15 46.5 31.812 46.5 33C46.5 34.188 46.104 35.85 44.922 37.26C43.668 38.754 41.697 39.75 39 39.75C36.495 39.75 34.605 38.892 33.33 37.545C32.9349 37.1088 32.7264 36.5352 32.7493 35.9471C32.7721 35.359 33.0245 34.8033 33.4522 34.3991C33.88 33.9949 34.4491 33.7744 35.0375 33.7848C35.6259 33.7953 36.1869 34.0359 36.6 34.455C36.93 34.803 37.59 35.25 39 35.25C40.5 35.25 41.16 34.746 41.478 34.365C41.7957 33.9788 41.979 33.4996 42 33C42 32.688 41.871 32.1 41.478 31.635C41.157 31.254 40.503 30.75 39 30.75C38.7785 30.7505 38.5581 30.7181 38.346 30.654C36.357 30.369 34.854 29.484 33.828 28.26C32.8284 27.0633 32.2712 25.5591 32.25 24C32.25 22.812 32.646 21.15 33.828 19.74Z" fill="#FAC036"/>
</g>
<defs>
<clipPath id="clip0_16973_119">
<rect width="48" height="48" fill="white"/>
</clipPath>
</defs>
</svg>
