<svg width="48" height="48" viewBox="0 0 48 48" fill="none" xmlns="http://www.w3.org/2000/svg">
<g clip-path="url(#clip0_16973_115)">
<path d="M24 47.625C23.2822 47.625 22.5536 47.4562 21.9214 47.1375L15.3107 43.7156C14.325 43.2281 14.8072 43.0593 15.1286 42.9656C16.4464 42.5625 16.7143 42.4781 18.1179 41.775C18.2679 41.7 18.4607 41.7281 18.6107 41.8125L23.6893 44.4468C23.8714 44.5406 24.1286 44.5406 24.3 44.4468L44.0893 34.4531C44.2714 34.3593 44.3893 34.1718 44.3893 33.9843V13.9968C44.3893 13.8 44.2714 13.6218 44.0786 13.5187L24.3 3.53433C24.1179 3.44058 23.8714 3.44058 23.6893 3.53433L3.92144 13.5281C3.72858 13.6218 3.61073 13.8093 3.61073 14.0062V33.9843C3.61073 34.1718 3.72858 34.3593 3.92144 34.4437L9.34287 37.1812C12.2893 38.4656 14.0893 36.9562 14.0893 35.4281V15.7031C14.0893 15.4218 14.3464 15.2062 14.6679 15.2062H17.175C17.4857 15.2062 17.7536 15.4218 17.7536 15.7031V35.4375C17.7536 38.8687 15.6107 40.8375 11.8929 40.8375C10.7464 40.8375 9.84644 40.8375 7.3393 39.75L2.15358 37.1343C0.867869 36.4875 0.0750122 35.2781 0.0750122 33.975V13.9968C0.0750122 12.7031 0.867869 11.4843 2.15358 10.8375L21.9214 0.843701C23.175 0.224951 24.8357 0.224951 26.0786 0.843701L45.8679 10.8468C47.1536 11.4937 47.9464 12.7031 47.9464 14.0062V33.9843C47.9464 35.2781 47.1536 36.4875 45.8679 37.1437L26.0786 47.1375C25.4464 47.4562 24.7286 47.625 24 47.625ZM39.975 27.9281C39.975 24.1875 37.0821 23.1937 31.0072 22.4906C24.8572 21.7781 24.2357 21.4125 24.2357 20.1562C24.2357 19.1156 24.7607 17.7281 29.3143 17.7281C33.375 17.7281 34.875 18.4968 35.4964 20.8968C35.55 21.1218 35.7857 21.2906 36.0536 21.2906H38.625C38.7857 21.2906 38.9357 21.2343 39.0429 21.1312C39.15 21.0281 39.2036 20.8875 39.1929 20.7468C38.7964 16.6125 35.6572 14.6906 29.3143 14.6906C23.6679 14.6906 20.3036 16.7718 20.3036 20.2687C20.3036 24.0562 23.6572 25.1062 29.0679 25.575C35.55 26.1281 36.0536 26.9625 36.0536 28.0781C36.0536 30.0093 34.275 30.8343 30.1072 30.8343C24.8679 30.8343 23.7214 29.6812 23.3357 27.4031C23.2929 27.1593 23.0572 26.9812 22.7679 26.9812H20.2072C19.8857 26.9812 19.6393 27.2062 19.6393 27.4781C19.6393 30.3937 21.45 33.8718 30.1179 33.8718C36.375 33.8625 39.975 31.6968 39.975 27.9281Z" fill="#FAC036"/>
</g>
<defs>
<clipPath id="clip0_16973_115">
<rect width="48" height="48" fill="white"/>
</clipPath>
</defs>
</svg>
