<svg width="24" height="24" viewBox="0 0 24 24" fill="none" xmlns="http://www.w3.org/2000/svg">
<g clip-path="url(#clip0_16973_164)">
<path d="M11.0467 8.30667H22.02C21.4378 6.73955 20.5084 5.35467 19.232 4.152C17.9556 2.95022 16.5004 2.144 14.8667 1.73333L11.0467 8.30667ZM8.28667 10.9733L13.8267 1.46667C13.5822 1.42222 13.2782 1.38889 12.9147 1.36667C12.5493 1.34444 12.2444 1.33333 12 1.33333C10.5333 1.33333 9.16667 1.61111 7.9 2.16667C6.63333 2.72222 5.51111 3.46667 4.53333 4.4L8.28667 10.9733ZM1.66667 14.6667H9.24L3.80667 5.21067C3.02622 6.17244 2.41867 7.22044 1.984 8.35467C1.55022 9.48889 1.33333 10.704 1.33333 12C1.33333 12.4667 1.36133 12.9169 1.41733 13.3507C1.47333 13.7844 1.55644 14.2231 1.66667 14.6667ZM9.184 22.2667L12.9893 15.6933H1.98C2.56222 17.2604 3.5 18.6453 4.79333 19.848C6.08667 21.0498 7.55022 21.856 9.184 22.2667ZM12 22.6667C13.4667 22.6667 14.8333 22.3889 16.1 21.8333C17.3667 21.2778 18.4889 20.5333 19.4667 19.6L15.7133 13.0267L10.2253 22.4827C10.4698 22.544 10.76 22.5898 11.096 22.62C11.432 22.6511 11.7333 22.6667 12 22.6667ZM20.1947 18.7893C20.9058 17.8782 21.4956 16.8302 21.964 15.6453C22.4324 14.4596 22.6667 13.2444 22.6667 12C22.6667 11.5333 22.6391 11.0836 22.584 10.6507C22.5289 10.2178 22.4453 9.77867 22.3333 9.33333H14.76L20.1947 18.7893ZM12 24C10.3484 24 8.79289 23.6844 7.33333 23.0533C5.87378 22.4222 4.60267 21.5644 3.52 20.48C2.43556 19.3982 1.57778 18.1271 0.946667 16.6667C0.315556 15.2071 0 13.6516 0 12C0 10.344 0.315556 8.78711 0.946667 7.32933C1.57867 5.87156 2.43644 4.60133 3.52 3.51867C4.60178 2.436 5.87289 1.57911 7.33333 0.948C8.79289 0.316 10.3484 0 12 0C13.656 0 15.2129 0.315556 16.6707 0.946667C18.1284 1.57867 19.3987 2.43644 20.4813 3.52C21.564 4.60267 22.4209 5.87244 23.052 7.32933C23.684 8.78711 24 10.344 24 12C24 13.6516 23.6844 15.2071 23.0533 16.6667C22.4222 18.1262 21.5644 19.3973 20.48 20.48C19.3973 21.5636 18.1276 22.4213 16.6707 23.0533C15.2129 23.6844 13.656 24 12 24Z" fill="white"/>
</g>
<defs>
<clipPath id="clip0_16973_164">
<rect width="24" height="24" fill="white"/>
</clipPath>
</defs>
</svg>
