<svg width="48" height="48" viewBox="0 0 48 48" fill="none" xmlns="http://www.w3.org/2000/svg">
<path d="M14.55 7.11588C13.797 7.55088 13.005 8.74788 12.912 11.3639C12.8856 11.9564 12.6263 12.5146 12.1904 12.917C11.7546 13.3193 11.1775 13.5333 10.5847 13.5123C9.99196 13.4914 9.43143 13.2372 9.0251 12.805C8.61876 12.3729 8.39951 11.7978 8.41502 11.2049C8.52902 8.00088 9.54302 4.81188 12.3 3.21888C15.066 1.62288 18.345 2.34888 21.183 3.86088C21.7097 4.14174 22.1033 4.62034 22.2772 5.19139C22.451 5.76244 22.3909 6.37916 22.11 6.90588C21.8292 7.4326 21.3506 7.82617 20.7795 8.00002C20.2085 8.17386 19.5917 8.11374 19.065 7.83288C16.746 6.59388 15.306 6.68388 14.55 7.11588ZM26.613 11.0129C26.8407 10.8245 27.1033 10.6829 27.3857 10.5961C27.6682 10.5092 27.965 10.4789 28.2592 10.5067C28.5533 10.5346 28.8391 10.6201 29.1003 10.7584C29.3614 10.8967 29.5927 11.0852 29.781 11.3129C31.5386 13.4451 33.1142 15.7211 34.491 18.1169C37.611 23.5229 39.534 29.0609 40.053 33.7049C40.311 36.0239 40.233 38.2319 39.693 40.1249C39.144 42.0299 38.082 43.7549 36.3 44.7839C34.143 46.0289 31.65 45.8549 29.373 45.0239C27.087 44.1899 24.732 42.6149 22.488 40.5659C22.0539 40.162 21.7969 39.603 21.7726 39.0106C21.7484 38.4182 21.959 37.8401 22.3587 37.4021C22.7583 36.9641 23.3147 36.7016 23.9069 36.6716C24.4991 36.6416 25.0791 36.8465 25.521 37.2419C27.501 39.0479 29.358 40.2299 30.912 40.7939C32.478 41.3639 33.462 41.2289 34.05 40.8869C34.542 40.6019 35.04 40.0229 35.364 38.8859C35.694 37.7339 35.799 36.1559 35.58 34.2059C35.145 30.3089 33.48 25.3649 30.591 20.3669C29.3407 18.1923 27.9108 16.1261 26.316 14.1899C26.1277 13.9622 25.986 13.6996 25.8992 13.4172C25.8124 13.1347 25.782 12.8379 25.8098 12.5437C25.8377 12.2496 25.9232 11.9637 26.0616 11.7026C26.1999 11.4415 26.3883 11.2102 26.616 11.0219" fill="#FAC036"/>
<path d="M43.5 24.6179C43.5 23.7479 42.858 22.4609 40.641 21.0779C40.3902 20.9213 40.1728 20.7169 40.001 20.4762C39.8293 20.2356 39.7066 19.9635 39.6401 19.6754C39.5735 19.3874 39.5643 19.089 39.613 18.7974C39.6617 18.5058 39.7674 18.2267 39.924 17.9759C40.2403 17.4695 40.7448 17.1094 41.3265 16.975C41.6146 16.9084 41.9129 16.8992 42.2045 16.9479C42.4961 16.9966 42.7752 17.1023 43.026 17.2589C45.744 18.9599 48 21.4319 48 24.6179C48 27.8099 45.732 30.2879 43.002 31.9889C42.4959 32.2926 41.8907 32.3853 41.3169 32.247C40.743 32.1086 40.2466 31.7503 39.9345 31.2493C39.6224 30.7483 39.5197 30.1447 39.6485 29.5687C39.7773 28.9926 40.1273 28.4903 40.623 28.1699C42.855 26.7779 43.5 25.4879 43.5 24.6179ZM34.089 33.1139C34.1385 33.4053 34.1301 33.7035 34.0643 33.9916C33.9985 34.2797 33.8766 34.552 33.7055 34.793C33.5345 35.0339 33.3176 35.2388 33.0674 35.396C32.8171 35.5532 32.5383 35.6595 32.247 35.7089C29.5215 36.1618 26.7629 36.3866 24 36.3809C17.76 36.3809 12 35.2799 7.719 33.4049C5.58 32.4719 3.711 31.2989 2.343 29.8829C0.96 28.4609 0 26.6729 0 24.6179C0 22.1279 1.398 20.0579 3.255 18.4979C5.121 16.9349 7.665 15.6839 10.56 14.7659C11.1289 14.5853 11.7462 14.6381 12.2762 14.9126C12.5386 15.0486 12.7717 15.2349 12.9621 15.4609C13.1525 15.6869 13.2966 15.9482 13.386 16.2299C13.4754 16.5116 13.5085 16.8081 13.4833 17.1026C13.4582 17.3971 13.3752 17.6837 13.2393 17.9461C13.1033 18.2085 12.917 18.4416 12.691 18.632C12.465 18.8224 12.2037 18.9665 11.922 19.0559C9.372 19.8659 7.416 20.8829 6.15 21.9479C4.872 23.0159 4.5 23.9369 4.5 24.6179C4.5 25.1879 4.755 25.9079 5.577 26.7569C6.411 27.6179 7.725 28.4969 9.522 29.2829C13.113 30.8549 18.228 31.8809 24 31.8809C26.655 31.8809 29.181 31.6649 31.494 31.2719C31.7853 31.2224 32.0836 31.2308 32.3717 31.2966C32.6598 31.3624 32.9321 31.4843 33.173 31.6554C33.414 31.8264 33.6189 32.0433 33.7761 32.2935C33.9333 32.5438 34.0396 32.8226 34.089 33.1139Z" fill="#FAC036"/>
<path d="M14.616 40.8901C15.366 41.3251 16.803 41.4121 19.113 40.1851C19.374 40.0464 19.6598 39.9605 19.954 39.9322C20.2482 39.904 20.5451 39.934 20.8277 40.0205C21.1103 40.107 21.3731 40.2483 21.6011 40.4364C21.8291 40.6244 22.0178 40.8556 22.1565 41.1166C22.2952 41.3776 22.3811 41.6633 22.4093 41.9575C22.4376 42.2517 22.4076 42.5486 22.3211 42.8312C22.2346 43.1138 22.0933 43.3767 21.9052 43.6047C21.7171 43.8327 21.486 44.0214 21.225 44.1601C18.393 45.6631 15.123 46.3801 12.366 44.7901C9.60001 43.1911 8.586 39.9901 8.481 36.7741C8.4701 36.1832 8.69208 35.6118 9.09897 35.1833C9.50586 34.7548 10.065 34.5035 10.6556 34.4838C11.2462 34.4641 11.8209 34.6775 12.2554 35.078C12.69 35.4785 12.9495 36.0338 12.978 36.6241C13.068 39.2491 13.86 40.4551 14.616 40.8901ZM11.964 28.4911C11.4047 28.2833 10.9508 27.862 10.7022 27.3196C10.4535 26.7773 10.4304 26.1584 10.638 25.5991C11.544 23.1541 12.729 20.6281 14.178 18.1201C17.298 12.7141 21.132 8.28006 24.894 5.50806C26.772 4.12506 28.722 3.09006 30.633 2.61306C32.556 2.13306 34.584 2.19006 36.363 3.21906C38.523 4.46406 39.615 6.70806 40.035 9.09906C40.458 11.4961 40.269 14.3221 39.615 17.2891C39.5621 17.5875 39.4494 17.8722 39.2837 18.126C39.118 18.3799 38.9028 18.5976 38.6509 18.7662C38.399 18.9348 38.1156 19.0507 37.8177 19.107C37.5199 19.1634 37.2138 19.1589 36.9177 19.094C36.6216 19.0291 36.3417 18.905 36.0947 18.7292C35.8478 18.5535 35.6389 18.3296 35.4806 18.0711C35.3224 17.8126 35.218 17.5247 35.1737 17.2249C35.1294 16.925 35.1462 16.6193 35.223 16.3261C35.796 13.7101 35.892 11.5081 35.604 9.87606C35.316 8.23806 34.704 7.45506 34.116 7.11606C33.624 6.83106 32.871 6.69006 31.725 6.97806C30.561 7.26906 29.145 7.96806 27.564 9.13206C24.408 11.4541 20.958 15.3721 18.075 20.3701C16.8134 22.5408 15.7366 24.8138 14.856 27.1651C14.6483 27.7243 14.2269 28.1782 13.6846 28.4269C13.1422 28.6755 12.5234 28.6986 11.964 28.4911Z" fill="#FAC036"/>
<path d="M28.38 24.1979C28.38 25.28 27.9501 26.3178 27.185 27.0829C26.4199 27.8481 25.3821 28.2779 24.3 28.2779C23.2179 28.2779 22.1802 27.8481 21.415 27.0829C20.6499 26.3178 20.22 25.28 20.22 24.1979C20.22 23.1158 20.6499 22.0781 21.415 21.3129C22.1802 20.5478 23.2179 20.1179 24.3 20.1179C25.3821 20.1179 26.4199 20.5478 27.185 21.3129C27.9501 22.0781 28.38 23.1158 28.38 24.1979Z" fill="#FAC036"/>
</svg>
