<svg aria-hidden="true" style="position: absolute; width: 0; height: 0; overflow: hidden;" version="1.1" xmlns="http://www.w3.org/2000/svg" xmlns:xlink="http://www.w3.org/1999/xlink">
<defs>
<symbol id="icon-open-letter" viewBox="0 0 27 32">
<path d="M1.528 12.1c-0.099 0.099-0.038 0.262 0.102 0.248v0h23.893c0.206-0.003 0.273-0.246 0.127-0.392l-11.101-11.055c-0.5-0.498-1.308-0.497-1.808 0.001l-11.214 11.198z"></path>
<path d="M27.204 12.715l-12.424 12.373c-0.32 0.318-0.752 0.496-1.203 0.496s-0.883-0.178-1.203-0.496l-12.314-12.28c-0.038 0.139-0.058 0.283-0.060 0.427v17.067c0 0.453 0.18 0.887 0.5 1.207s0.754 0.5 1.207 0.5h23.893c0.453 0 0.887-0.18 1.207-0.5s0.5-0.754 0.5-1.207v-17.067c-0.007-0.178-0.041-0.353-0.102-0.521zM2.876 30.302h-1.186v-1.22l6.204-6.153 1.203 1.203-6.221 6.17zM25.583 30.302h-1.195l-6.221-6.17 1.203-1.203 6.204 6.153 0.009 1.22z"></path>
</symbol>
<symbol id="icon-hand" viewBox="0 0 32 32">
<path fill="#fac036" style="fill: var(--color1, #fac036)" d="M9.777 19.89c-0.275 0.258-0.553-0.050-0.553-0.050s-4.62-4.895-4.92-5.115c-0.422-0.307-1.327-0.79-2.232 0.143-0.377 0.387-0.993 1.25 0.15 2.64 0.248 0.3 7.445 7.885 7.865 8.295 0 0 3.325 3.235 5.338 4.453 0.557 0.337 1.185 0.695 1.918 0.945 0.73 0.25 1.555 0.422 2.425 0.422 0.87 0.010 1.773-0.157 2.625-0.47 0.852-0.315 1.648-0.773 2.37-1.3 0.177-0.135 0.358-0.27 0.525-0.415l0.485-0.4c0.331-0.28 0.65-0.574 0.955-0.883 0.608-0.605 1.155-1.253 1.637-1.915 0.48-0.665 0.887-1.352 1.212-2.038s0.552-1.372 0.69-2.023c0.145-0.648 0.185-1.26 0.163-1.795-0.005-0.535-0.113-0.992-0.2-1.358-0.1-0.365-0.207-0.637-0.293-0.817-0.082-0.18-0.128-0.275-0.128-0.275-0.115-0.323-0.225-0.63-0.323-0.907-0.368-1.042-0.744-2.081-1.128-3.117l0.003 0.008c-1.212-3.293-2.515-6.685-2.515-6.685-0.198-0.598-0.925-0.805-1.46-0.42-1.545 1.11-2.017 2.73-1.473 4.457l1.398 3.83c0.198 0.428-0.348 0.923-0.712 0.625-1.148-0.935-3.575-3.513-3.575-3.513-1.085-1.040-7.207-7.317-7.617-7.7-0.825-0.768-1.865-1.163-2.658-0.58-0.81 0.595-1.035 1.515-0.252 2.52 0.213 0.272 6.4 6.81 6.4 6.81 0.36 0.377-0.065 0.912-0.463 0.545 0 0-7.697-8.030-8.045-8.405-0.787-0.855-2.053-1.043-2.803-0.338-0.732 0.688-0.715 1.815 0.085 2.7 0.255 0.28 5.677 6.005 7.848 8.35 0.145 0.157 0.258 0.367 0.043 0.565-0.002 0.003-0.22 0.238-0.5-0.063-0.59-0.63-6.482-6.77-6.81-7.102-0.753-0.765-1.763-1.127-2.575-0.383-0.74 0.678-0.86 1.86-0.010 2.695l7.137 7.545c0 0 0.232 0.275-0.027 0.517z"></path>
<path fill="#e48c15" style="fill: var(--color2, #e48c15)" d="M21.365 13.6l0.602 0.645c0 0-3.448 3.327-1.098 8.437 0 0 0.305 0.648-0.095 0.755 0 0-0.35 0.195-0.75-0.8 0-0.003-2.372-4.855 1.34-9.037z"></path>
<path fill="none" stroke="#444" style="stroke: var(--color3, #444)" stroke-linejoin="miter" stroke-linecap="round" stroke-miterlimit="10" stroke-width="1" d="M15.82 2.55c0 0 1.453 0.22 2.797 1.66 1.345 1.442 1.968 3.295 1.968 3.295M19.36 0.875c0 0 1.218 0.613 2.157 2.125s1.168 3.263 1.168 3.263M8.927 27.683c0 0-1.465 0.098-3.088-1.023s-2.63-2.795-2.63-2.795M7.882 30.14c0 0-1.36 0.058-2.92-0.805s-2.61-2.28-2.61-2.28"></path>
</symbol>
<symbol id="icon-arrow-down" viewBox="0 0 32 32">
<path d="M22.4 12.8l-6.448 9.6-6.352-9.6h12.8z"></path>
</symbol>
<symbol id="icon-arrow-left" viewBox="0 0 32 32">
<path d="M18.667 21.333l-8-5.373 8-5.293v10.667z"></path>
</symbol>
<symbol id="icon-arrow-right" viewBox="0 0 32 32">
<path d="M13.333 10.667l8 5.373-8 5.293v-10.667z"></path>
</symbol>
<symbol id="icon-close" viewBox="0 0 30 32">
<path d="M17.477 15.244l12.632-12.632c0.25-0.292 0.38-0.666 0.365-1.050s-0.174-0.747-0.445-1.019-0.635-0.43-1.019-0.445c-0.384-0.015-0.759 0.116-1.050 0.365l-12.632 12.632-12.632-12.648c-0.287-0.287-0.676-0.448-1.082-0.448s-0.795 0.161-1.082 0.448c-0.287 0.287-0.448 0.676-0.448 1.082s0.161 0.795 0.448 1.082l12.648 12.632-12.648 12.632c-0.159 0.137-0.289 0.305-0.381 0.494s-0.143 0.395-0.151 0.605c-0.008 0.21 0.027 0.419 0.104 0.615s0.193 0.373 0.341 0.522c0.148 0.149 0.326 0.265 0.522 0.341s0.405 0.112 0.615 0.104 0.416-0.060 0.605-0.151c0.189-0.091 0.357-0.221 0.494-0.381l12.648-12.632 12.632 12.632c0.291 0.25 0.666 0.38 1.050 0.365s0.747-0.174 1.019-0.445c0.271-0.271 0.43-0.635 0.445-1.019s-0.116-0.758-0.365-1.050l-12.632-12.632z"></path>
</symbol>
<symbol id="icon-github" viewBox="0 0 32 32">
<path d="M16 0c-8.84 0-16 7.16-16 16 0 7.080 4.58 13.060 10.94 15.18 0.8 0.14 1.1-0.34 1.1-0.76 0-0.38-0.020-1.64-0.020-2.98-4.020 0.74-5.060-0.98-5.38-1.88-0.18-0.46-0.96-1.88-1.64-2.26-0.56-0.3-1.36-1.040-0.020-1.060 1.26-0.020 2.16 1.16 2.46 1.64 1.44 2.42 3.74 1.74 4.66 1.32 0.14-1.040 0.56-1.74 1.020-2.14-3.56-0.4-7.28-1.78-7.28-7.9 0-1.74 0.62-3.18 1.64-4.3-0.16-0.4-0.72-2.040 0.16-4.24 0 0 1.34-0.42 4.4 1.64 1.28-0.36 2.64-0.54 4-0.54s2.72 0.18 4 0.54c3.060-2.080 4.4-1.64 4.4-1.64 0.88 2.2 0.32 3.84 0.16 4.24 1.020 1.12 1.64 2.54 1.64 4.3 0 6.14-3.74 7.5-7.3 7.9 0.58 0.5 1.080 1.46 1.080 2.96 0 2.14-0.020 3.86-0.020 4.4 0 0.42 0.3 0.92 1.1 0.76 3.176-1.072 5.936-3.114 7.892-5.837s3.007-5.991 3.008-9.343c0-8.84-7.16-16-16-16z"></path>
</symbol>
<symbol id="icon-instagram" viewBox="0 0 32 32">
<path d="M18.553 2.286c1.543 0.004 2.326 0.012 3.002 0.032l0.266 0.010c0.307 0.011 0.61 0.025 0.976 0.041 1.459 0.069 2.455 0.299 3.328 0.638 0.905 0.348 1.668 0.82 2.43 1.581 0.697 0.686 1.237 1.515 1.581 2.43 0.339 0.874 0.569 1.869 0.638 3.33 0.016 0.365 0.030 0.668 0.041 0.976l0.008 0.266c0.021 0.675 0.029 1.458 0.032 3.001l0.001 1.023v1.797c0.003 1-0.007 2.001-0.032 3.001l-0.008 0.266c-0.011 0.309-0.025 0.612-0.041 0.976-0.069 1.461-0.302 2.455-0.639 3.33-0.343 0.916-0.883 1.745-1.581 2.43-0.686 0.697-1.515 1.237-2.43 1.581-0.874 0.339-1.869 0.569-3.328 0.638-0.325 0.015-0.651 0.029-0.976 0.041l-0.266 0.008c-0.676 0.019-1.459 0.029-3.002 0.032l-2.818 0.001c-1.001 0.004-2.001-0.007-3.002-0.032l-0.266-0.008c-0.326-0.012-0.651-0.026-0.976-0.043-1.459-0.069-2.455-0.299-3.33-0.638-0.915-0.344-1.744-0.883-2.429-1.581-0.698-0.685-1.238-1.515-1.583-2.43-0.339-0.873-0.569-1.869-0.638-3.33-0.015-0.325-0.029-0.651-0.041-0.976l-0.007-0.266c-0.025-1-0.037-2-0.034-3.001v-2.82c-0.004-1 0.006-2.001 0.030-3.001l0.010-0.266c0.011-0.309 0.025-0.612 0.041-0.976 0.069-1.461 0.299-2.455 0.638-3.33 0.344-0.916 0.886-1.746 1.585-2.43 0.684-0.697 1.513-1.237 2.427-1.581 0.875-0.339 1.869-0.569 3.33-0.638 0.365-0.016 0.669-0.030 0.976-0.041l0.266-0.008c1-0.024 2-0.035 3-0.032l2.82-0.001zM17.143 9.143c-1.819 0-3.563 0.722-4.848 2.008s-2.008 3.030-2.008 4.849c0 1.819 0.722 3.563 2.008 4.849s3.030 2.008 4.848 2.008 3.563-0.722 4.848-2.008c1.286-1.286 2.008-3.030 2.008-4.849s-0.722-3.563-2.008-4.849c-1.286-1.286-3.030-2.008-4.848-2.008zM17.143 11.886c0.54-0 1.075 0.106 1.574 0.313s0.953 0.51 1.335 0.892c0.382 0.382 0.685 0.835 0.892 1.335s0.313 1.034 0.314 1.574c0 0.54-0.106 1.075-0.313 1.575s-0.51 0.953-0.892 1.335c-0.382 0.382-0.836 0.685-1.335 0.892s-1.034 0.313-1.574 0.313c-1.091 0-2.138-0.433-2.909-1.205s-1.205-1.818-1.205-2.909c0-1.091 0.433-2.138 1.205-2.909s1.818-1.205 2.909-1.205zM24.344 7.086c-0.455 0-0.891 0.181-1.212 0.502s-0.502 0.757-0.502 1.212 0.181 0.891 0.502 1.212c0.322 0.322 0.758 0.502 1.212 0.502s0.891-0.181 1.212-0.502c0.322-0.322 0.502-0.758 0.502-1.212s-0.181-0.891-0.502-1.212c-0.322-0.322-0.758-0.502-1.212-0.502z"></path>
</symbol>
<symbol id="icon-letter" viewBox="0 0 32 32">
<path d="M30.071 5.333c-0.121-0.012-0.243-0.012-0.364 0h-24.889c-0.16 0.002-0.318 0.026-0.471 0.071l12.844 12.791 12.88-12.862z"></path>
<path d="M30.942 6.569l-12.942 12.889c-0.333 0.331-0.784 0.517-1.253 0.517s-0.92-0.186-1.253-0.517l-12.827-12.791c-0.039 0.145-0.060 0.294-0.062 0.444v17.778c0 0.471 0.187 0.924 0.521 1.257s0.786 0.521 1.257 0.521h24.889c0.471 0 0.924-0.187 1.257-0.521s0.521-0.786 0.521-1.257v-17.778c-0.007-0.185-0.043-0.368-0.107-0.542zM5.6 24.889h-1.236v-1.271l6.462-6.409 1.253 1.253-6.48 6.427zM29.253 24.889h-1.244l-6.48-6.427 1.253-1.253 6.462 6.409 0.009 1.271z"></path>
</symbol>
<symbol id="icon-linkedin" viewBox="0 0 32 32">
<path d="M16 0c-8.837 0-16 7.163-16 16s7.163 16 16 16c8.837 0 16-7.163 16-16s-7.163-16-16-16zM12.083 22.632h-3.24v-10.427h3.24v10.427zM10.443 10.925c-1.023 0-1.685-0.725-1.685-1.622 0-0.915 0.682-1.618 1.727-1.618s1.685 0.703 1.705 1.618c0 0.897-0.66 1.622-1.747 1.622zM23.917 22.632h-3.24v-5.778c0-1.345-0.47-2.258-1.642-2.258-0.895 0-1.427 0.618-1.662 1.213-0.087 0.212-0.108 0.512-0.108 0.81v6.012h-3.242v-7.1c0-1.302-0.042-2.39-0.085-3.327h2.815l0.148 1.448h0.065c0.427-0.68 1.472-1.683 3.22-1.683 2.132 0 3.73 1.428 3.73 4.498v6.165z"></path>
</symbol>
<symbol id="icon-menu-burger" viewBox="0 0 38 32">
<path stroke-linejoin="round" stroke-linecap="round" stroke-miterlimit="4" stroke-width="1.2308" d="M4.738 5.538h28.431M4.738 13.538h28.431M4.738 21.538h28.431"></path>
</symbol>
<symbol id="icon-OM" viewBox="0 0 69 32">
<path d="M25.117 1.34c-0.426 0.372-0.83 0.761-1.213 1.165-0.372 0.394-0.729 0.814-1.069 1.261 1.117 0.223 2.17 0.596 3.16 1.117 1 0.521 1.872 1.181 2.617 1.979s1.335 1.734 1.771 2.809c0.436 1.064 0.654 2.25 0.654 3.559 0 1.457-0.218 2.782-0.654 3.973-0.426 1.181-1.021 2.234-1.787 3.16-0.766 0.915-1.67 1.707-2.713 2.378s-2.176 1.229-3.399 1.676c-1.223 0.436-2.511 0.755-3.862 0.957-1.34 0.213-2.697 0.319-4.069 0.319-0.479 0-0.979-0.011-1.5-0.032-0.521-0.011-1.027-0.037-1.516-0.080-0.479-0.032-0.931-0.085-1.356-0.16-0.415-0.064-0.755-0.149-1.021-0.255 0.372-0.308 0.713-0.622 1.021-0.941s0.601-0.649 0.878-0.989c-1.117-0.223-2.176-0.575-3.176-1.053s-1.878-1.085-2.633-1.819c-0.745-0.745-1.335-1.628-1.771-2.649s-0.654-2.197-0.654-3.527c0-1.543 0.25-2.936 0.75-4.181 0.511-1.255 1.202-2.362 2.074-3.319 0.883-0.968 1.915-1.798 3.096-2.489 1.181-0.702 2.452-1.277 3.814-1.723 1.362-0.457 2.777-0.793 4.245-1.005 1.479-0.213 2.941-0.319 4.388-0.319 0.628 0 1.261 0.016 1.899 0.048 0.649 0.032 1.324 0.080 2.027 0.144zM23.872 11.856c0-0.617-0.075-1.17-0.223-1.66-0.149-0.5-0.356-0.947-0.622-1.34s-0.585-0.734-0.957-1.021c-0.362-0.287-0.761-0.537-1.197-0.75-0.17 0.383-0.324 0.766-0.463 1.149-0.128 0.383-0.25 0.777-0.367 1.181-0.617-0.213-1.197-0.356-1.739-0.431-0.532-0.085-1.027-0.128-1.484-0.128-0.798 0-1.606 0.144-2.426 0.431-0.819 0.277-1.558 0.681-2.218 1.213-0.649 0.532-1.181 1.175-1.596 1.931s-0.622 1.601-0.622 2.537c0 0.479 0.069 0.947 0.207 1.404 0.149 0.447 0.351 0.878 0.606 1.293 0.266 0.415 0.575 0.814 0.926 1.197 0.362 0.372 0.75 0.729 1.165 1.069 0.149-0.447 0.261-0.888 0.335-1.324 0.085-0.447 0.138-0.92 0.16-1.42 0.702 0.362 1.372 0.612 2.011 0.75 0.649 0.138 1.25 0.207 1.803 0.207 0.83 0 1.644-0.144 2.441-0.431 0.808-0.287 1.527-0.702 2.154-1.245 0.638-0.543 1.149-1.202 1.532-1.979s0.574-1.654 0.574-2.633zM64.117 1.771c-0.457 1.032-0.846 2.021-1.165 2.968s-0.58 1.862-0.782 2.745c-0.192 0.872-0.335 1.713-0.431 2.521-0.085 0.798-0.128 1.569-0.128 2.314 0 1.415 0.144 2.718 0.431 3.909 0.287 1.181 0.66 2.266 1.117 3.255 0.457 0.979 0.973 1.867 1.548 2.665s1.144 1.511 1.707 2.138c-0.447-0.053-0.872-0.096-1.277-0.128s-0.787-0.048-1.149-0.048c-0.553 0-1.080 0.032-1.58 0.096s-0.995 0.16-1.484 0.287c-0.489 0.117-0.984 0.271-1.484 0.463s-1.032 0.415-1.596 0.67c-0.606-1.723-1.085-3.463-1.436-5.218-0.34-1.766-0.559-3.559-0.654-5.378-0.766 1.521-1.415 3.106-1.947 4.755s-0.899 3.42-1.101 5.314c-0.128 0-0.41 0.005-0.846 0.016s-0.963 0.043-1.58 0.096c-0.606 0.053-1.266 0.133-1.979 0.239-0.702 0.117-1.388 0.282-2.059 0.495-0.181-2.053-0.527-3.957-1.037-5.713-0.511-1.766-1.165-3.447-1.963-5.043-0.213 3.596-0.899 7.074-2.059 10.436-2.245-1.011-4.654-1.516-7.229-1.516-0.426 0-0.856 0.016-1.293 0.048s-0.878 0.075-1.325 0.128c1.915-2.021 3.372-4.282 4.372-6.782 1.011-2.5 1.516-5.25 1.516-8.25 0-0.766-0.032-1.543-0.096-2.33-0.926-0.936-1.899-1.862-2.92-2.777s-2.106-1.851-3.255-2.808c0.191 0.053 0.436 0.122 0.734 0.207 0.298 0.074 0.649 0.149 1.053 0.223s0.851 0.138 1.34 0.192c0.489 0.043 1.021 0.064 1.596 0.064 1.021 0 2.144-0.112 3.367-0.335 1.234-0.223 2.542-0.644 3.925-1.261 0.798 1.426 1.59 3.005 2.378 4.739 0.33 0.734 0.676 1.543 1.037 2.426 0.372 0.883 0.739 1.824 1.101 2.825 0.362 0.989 0.713 2.032 1.053 3.128 0.351 1.096 0.676 2.234 0.973 3.415 0.617-1.734 1.202-3.346 1.755-4.835 0.564-1.489 1.085-2.91 1.564-4.261 0.479-1.362 0.904-2.681 1.277-3.957 0.383-1.277 0.702-2.58 0.957-3.91 0.745 0.447 1.543 0.793 2.394 1.037 0.851 0.234 1.686 0.41 2.505 0.527 0.819 0.106 1.59 0.17 2.314 0.191 0.734 0.011 1.346 0.016 1.835 0.016z"></path>
</symbol>
<symbol id="icon-telegram" viewBox="0 0 32 32">
<path d="M15.925 0c-4.23 0.020-8.281 1.714-11.265 4.713s-4.66 7.057-4.66 11.287c0 4.243 1.686 8.313 4.686 11.314s7.070 4.686 11.314 4.686 8.313-1.686 11.314-4.686c3.001-3.001 4.686-7.070 4.686-11.314s-1.686-8.313-4.686-11.314c-3.001-3.001-7.070-4.686-11.314-4.686-0.025-0-0.050-0-0.075 0zM22.541 9.632c0.133-0.003 0.428 0.031 0.62 0.187 0.128 0.111 0.209 0.265 0.228 0.433 0.021 0.124 0.048 0.408 0.027 0.629-0.24 2.531-1.283 8.669-1.813 11.503-0.224 1.2-0.665 1.601-1.093 1.64-0.928 0.087-1.633-0.613-2.533-1.203-1.408-0.924-2.204-1.499-3.571-2.4-1.58-1.040-0.556-1.613 0.344-2.547 0.236-0.245 4.329-3.969 4.409-4.307 0.009-0.043 0.019-0.2-0.075-0.283s-0.232-0.055-0.332-0.032c-0.141 0.032-2.391 1.52-6.748 4.46-0.64 0.44-1.217 0.653-1.736 0.64-0.571-0.011-1.669-0.321-2.487-0.587-1.003-0.327-1.799-0.499-1.729-1.052 0.036-0.288 0.433-0.583 1.191-0.884 4.664-2.032 7.773-3.372 9.331-4.019 4.443-1.848 5.367-2.169 5.968-2.18z"></path>
</symbol>
<symbol id="icon-telephone" viewBox="0 0 32 32">
<path d="M29.72 25.84l-7.13-7.13c-0.153-0.151-0.352-0.247-0.566-0.273s-0.43 0.021-0.614 0.133c-1.286 0.778-2.246 1.997-2.7 3.43-0.23 0.72-1.070 1.050-1.72 0.66l-0.020-0.020c-3.123-1.873-5.737-4.487-7.61-7.61 0-0.010-0.010-0.020-0.010-0.020-0.4-0.65-0.070-1.49 0.65-1.72 1.436-0.449 2.657-1.41 3.43-2.7 0.23-0.38 0.17-0.86-0.14-1.18l-7.13-7.13c-0.153-0.151-0.352-0.247-0.566-0.273s-0.43 0.021-0.614 0.133c-0.872 0.523-1.6 1.255-2.118 2.13s-0.811 1.864-0.852 2.88v0.010c-0.010 0.1-0.010 0.2-0.010 0.3 0 0.14 0.010 0.27 0.020 0.4 0.119 3.96 1.252 7.823 3.29 11.22 1.87 3.12 4.49 5.74 7.61 7.61l0.010 0.010c3.44 2.070 7.36 3.2 11.37 3.29 0.080 0 0.16 0.010 0.24 0.010h0.56v-0.020c0.972-0.082 1.911-0.393 2.74-0.908s1.525-1.218 2.030-2.052c0.22-0.38 0.16-0.87-0.15-1.18z"></path>
</symbol>
</defs>
</svg>
