<svg width="25" height="24" viewBox="0 0 25 24" fill="none" xmlns="http://www.w3.org/2000/svg">
<path d="M12.2424 22.75C18.2994 22.75 23.2096 17.9371 23.2096 12C23.2096 6.06294 18.2994 1.25 12.2424 1.25C6.18544 1.25 1.27527 6.06294 1.27527 12C1.27527 17.9371 6.18544 22.75 12.2424 22.75Z" stroke="white" stroke-linecap="round" stroke-linejoin="round"/>
<path d="M12.2424 22.75C18.2994 22.75 23.2096 17.9371 23.2096 12C23.2096 6.06294 18.2994 1.25 12.2424 1.25C6.18544 1.25 1.27527 6.06294 1.27527 12C1.27527 17.9371 6.18544 22.75 12.2424 22.75Z" stroke="white" stroke-linecap="round" stroke-linejoin="round"/>
<path d="M8.43908 8.28855C5.29278 11.3866 3.991 15.5926 4.50468 19.6186C8.61354 20.1041 12.8989 18.8091 16.0457 15.7116C19.192 12.6136 20.4938 8.40755 19.9801 4.38155C15.8713 3.89655 11.5859 5.19105 8.43908 8.28855Z" stroke="white" stroke-linecap="round" stroke-linejoin="round"/>
<path d="M16.0289 8.2721C12.8683 5.1881 8.57734 3.9121 4.47001 4.4156C3.9747 8.4431 5.29587 12.6436 8.45594 15.7281C11.616 18.8121 15.9075 20.0881 20.0148 19.5846C20.5096 15.5571 19.189 11.3566 16.0289 8.2721Z" stroke="white" stroke-linecap="round" stroke-linejoin="round"/>
</svg>
